<?xml version="1.0" encoding="UTF-8"?>
<svg id="Layer_2" data-name="Layer 2" xmlns="http://www.w3.org/2000/svg" viewBox="0 0 201.43 48.92">
  <defs>
    <style>
      .cls-1 {
        fill: #dbc09a;
      }

      .cls-2 {
        fill: #ead0a7;
      }
    </style>
  </defs>
  <g id="Layer_7" data-name="Layer 7">
    <path class="cls-2" d="M186.53,17.75l-8.36-4.28-15.06-4.81-10.04-6.22-21.75-2.44h-31.79l-21.75,2.44-6.69,7.83-10.04,9.79-16.73,1.78-10.87,5.53H15.89l-10.04,3.74L0,42.88l14.22,6.04h3.35v-2.3l-10.04-6.42,10.87-6.95h17.57l40.99-5.35s-24.26,.53-29.28,0c-5.02-.53,8.36-3.45,8.36-3.45l38.48-2.62-25.93-1.78,15.89-14.44h55.21l-8.36,5.71,25.93,.53,4.18,8.19-11.71,4.4s33.46,.24,42.66,0c9.2-.24,0,6.12,0,6.12l-37.64,4.63,31.79,4.99s-11.71,8.72-15.89,8.72h14.22l15.01-8.72,1.56-15.74-14.9-6.71Z"/>
    <path class="cls-1" d="M186.53,40.2l-31.79-4.99,37.64-4.63s9.2-6.36,0-6.12c-9.2,.24-42.66,0-42.66,0l11.71-4.4-4.18-8.19-25.93-.53,8.36-5.71h-55.21l-15.89,14.44,25.93,1.78-38.48,2.62s-13.38,2.91-8.36,3.45c5.02,.53,29.28,0,29.28,0l-40.99,5.35H18.4l-10.87,6.95,10.04,6.42v2.3H170.64c4.18,0,15.89-8.72,15.89-8.72Zm-45.17,1.6h-25.09c-5.02,0-80.3-3.21-85.32-3.21s65.24-8.55,65.24-8.55h40.15l5.02,3.74-15.06,2.14,15.06,5.88Z"/>
    <path class="cls-2" d="M136.34,30.05h-40.15S25.93,38.6,30.95,38.6s80.3,3.21,85.32,3.21h25.09l-15.06-5.88,15.06-2.14-5.02-3.74Z"/>
  </g>
</svg>