<?xml version="1.0" encoding="UTF-8"?>
<svg id="Layer_2" data-name="Layer 2" xmlns="http://www.w3.org/2000/svg" viewBox="0 0 195.73 48.39">
  <defs>
    <style>
      .cls-1 {
        fill: #dbc09a;
      }

      .cls-2 {
        fill: #ead0a7;
      }
    </style>
  </defs>
  <g id="Layer_7" data-name="Layer 7">
    <path class="cls-2" d="M25.93,38.77l-15.2-3.74s3.49-4.28,15.2-5.35c11.71-1.07,36.8-5.09,40.15-5.48,3.35-.4,53.53,2,47.68,0-5.86-2-43.5-4.14-43.5-5.74s-1.67-8.02,6.69-8.55c8.36-.53,24.37-1.07,37.28,0,12.91,1.07,25.46-.62,25.46-.62h-17.57s20.07-4.91,24.26-4.55c4.18,.36,18.4,7.84,18.4,7.84l13.04,5.17-6.34-6.24L149.73,0l-35.13,4.73-40.99,1.62-14.22,13.03-25.09,6.21-23.57,4.08L0,38.77l5.02,7.84v-7.84H25.93Z"/>
    <path class="cls-1" d="M184.02,31.9l-10.04-7.7-37.64-4.14,41.48-2.32h0l-13.04-5.17s-14.22-7.49-18.4-7.84c-4.18-.36-24.26,4.55-24.26,4.55h17.57s-12.55,1.69-25.46,.62c-12.91-1.07-28.91-.53-37.28,0-8.36,.53-6.69,6.95-6.69,8.55s37.64,3.74,43.5,5.74c5.86,2-44.33-.4-47.68,0-3.35,.4-28.44,4.41-40.15,5.48-11.71,1.07-15.2,5.35-15.2,5.35l15.2,3.74H5.02v7.84l29.28,1.78,145.81-1.78,3.91-3.97v-10.75Z"/>
    <polygon class="cls-2" points="195.73 38.77 182.35 22.2 177.82 17.74 136.34 20.06 173.98 24.2 184.02 31.9 184.02 42.65 180.11 46.62 180.68 46.61 195.73 38.77"/>
  </g>
</svg>