<?xml version="1.0" encoding="UTF-8"?>
<svg id="Layer_2" data-name="Layer 2" xmlns="http://www.w3.org/2000/svg" viewBox="0 0 115.48 59.96">
  <defs>
    <style>
      .cls-1 {
        fill: #dbc09a;
      }

      .cls-2 {
        fill: #ead0a7;
      }
    </style>
  </defs>
  <g id="Layer_7" data-name="Layer 7">
    <path class="cls-1" d="M94.91,41.7l-37.17-6.15,51.1,2.41-3.98-16.04s-40.49-4.28-47.12-4.81c-6.64-.53,33.18-3.21,33.18-3.21l-28.54-5.35h-13.27l-12.61,4.81,16.59,9.09-29.87-3.74L7.96,29.98v21.35l45.13,8.64h41.15l1.99-9.7-1.33-8.55Z"/>
    <path class="cls-2" d="M115.48,19.25l-23.89-11.76L53.1,0,19.31,10.69,0,29.94l7.96,21.39V29.98l15.26-11.27,29.87,3.74-16.59-9.09,12.61-4.81h13.27l28.54,5.35s-39.82,2.67-33.18,3.21c6.64,.53,47.12,4.81,47.12,4.81l3.98,16.04-51.1-2.41,37.17,6.15,1.33,8.55-1.99,9.7,21.24-19.33V19.25Z"/>
  </g>
</svg>