<?xml version="1.0" encoding="UTF-8"?>
<svg id="Layer_2" data-name="Layer 2" xmlns="http://www.w3.org/2000/svg" viewBox="0 0 1842.36 786.21">
  <defs>
    <style>
      .cls-1, .cls-2 {
        fill: #dd3a51;
      }

      .cls-2 {
        opacity: .69;
      }

      .cls-3 {
        fill: #a2a9f4;
        opacity: .7;
      }

      .cls-4 {
        fill: #05343f;
      }

      .cls-5 {
        opacity: .75;
      }

      .cls-5, .cls-6 {
        fill: #727272;
      }

      .cls-7 {
        fill: #fe7868;
      }

      .cls-6 {
        opacity: .73;
      }

      .cls-8 {
        fill: #ff7e87;
      }

      .cls-9 {
        fill: #f1f2f2;
      }

      .cls-10 {
        fill: #4f4f4f;
      }

      .cls-11 {
        fill: none;
        stroke: #231f20;
        stroke-miterlimit: 10;
        stroke-width: 7px;
      }

      .cls-12 {
        fill: #d1d3d4;
      }

      .cls-13 {
        fill: #93c7d4;
      }

      .cls-14 {
        fill: #231f20;
      }

      .cls-15 {
        fill: #ffffa0;
      }

      .cls-16 {
        fill: #414042;
      }
    </style>
  </defs>
  <g id="Layer_1-2" data-name="Layer 1">
    <g>
      <path class="cls-12" d="M1628.85,212.79c-2.92-27.01-61.14-57.09-289.77-57.09H267.32c-116.94,0-211.74,94.48-211.74,211.02v46.64l1696.51-2.97c-27.8-73.68-101.31-179.37-123.24-197.6Zm-936.35,142.96c0,14.17-11.97,25.66-26.73,25.66H236.39c-16.95,0-29.61-14.94-26.17-30.87l18.31-84.71c5.41-25.04,28.39-42.99,55.03-42.99h389.34c10.83,0,19.61,8.42,19.61,18.82v114.09Zm515.4,8.72c0,10.72-8.69,19.4-19.4,19.4h-425.6c-10.72,0-19.4-8.69-19.4-19.4v-120.96c0-10.72,8.69-19.4,19.4-19.4h425.6c10.72,0,19.4,8.69,19.4,19.4v120.96Zm437.59,25.56h-349.32c-9.49,0-17.18-7.55-17.18-16.87v-127.78c0-9.32,7.69-16.87,17.18-16.87h289.44c6.71,0,12.8,3.83,15.6,9.82l59.88,127.78c5.24,11.18-3.07,23.93-15.6,23.93Z"/>
      <path class="cls-14" d="M1425.22,348.04c-.16-.48-.18-1.01-.02-1.53,.32-1.08,.65-2.32,.73-3.09,.08-.68-.2-1.25-.55-1.68-.57-.7-.76-1.62-.47-2.48,.45-1.35,.83-3.25-.05-4.33-.7-.87-1.63-2.16-2.41-3.29-.85-1.22-.49-2.89,.78-3.66l4.7-2.84c1.32-.8,1.64-2.55,.7-3.77l-13.44-17.27c-.17-.41-.34-.82-.52-1.23-.05-.39-.02-.79,.11-1.17l1.41-4.16c.26-.78,.14-1.64-.34-2.31l-9.17-12.85c3.14-12.42-8.7-37.56-33.53-28.18-25.48,9.62-63.9,36.46-66.52,52.12-3.72,22.27,11.88,33.13,14.5,45.39v6.68c-.13,.6-.3,1.2-.51,1.81-.01,.04-.02,.07-.04,.11l.08-.05,.47,.56v25.63h55.96v-7.41l3.88-4.37c18.86,6.2,36.8,3.66,42.47-1.73,10.35-9.82,9.04-22.14,1.78-24.91Z"/>
      <path class="cls-5" d="M1626.42,224.3H123.94s-12.86,0-12.86,0c0,0,15.14-17,21.79-22.29s9.59-4.23,14.69-4.23H1611.84c8.05,0,18.52,11.87,18.52,26.52h-3.94Z"/>
      <path class="cls-14" d="M1278.99,275.49l167.59,2.38-2.05,107.21h6.48l3.75-104.49,25.91-.34,37.51,106.03h41.26l-47.05-118.94,69.22-42.82-289.58-1.43s-16.27-.95-13.03,52.4Z"/>
      <path class="cls-3" d="M1645.49,385.44h-349.32c-9.49,0-17.18-7.55-17.18-16.87v-127.78c0-9.32,7.69-16.87,17.18-16.87h289.44c6.71,0,12.8,3.83,15.6,9.82l59.88,127.78c5.24,11.18-3.07,23.93-15.6,23.93Z"/>
      <path class="cls-14" d="M1645.49,391.45h-349.32c-12.23,0-22.18-9.78-22.18-21.8v-127.21c0-12.02,9.95-21.8,22.18-21.8h289.44c8.61,0,16.51,4.96,20.13,12.64l59.88,127.21c3.15,6.7,2.66,14.43-1.31,20.69-4.08,6.43-11.11,10.27-18.82,10.27Zm-349.32-160.81c-6.71,0-12.18,5.29-12.18,11.8v127.21c0,6.5,5.46,11.8,12.18,11.8h349.32c4.26,0,8.14-2.1,10.38-5.62,2.16-3.4,2.41-7.43,.7-11.07l-59.88-127.21c-1.97-4.19-6.32-6.9-11.08-6.9h-289.44Z"/>
      <path class="cls-14" d="M1005.36,381.54l-240.39-6.49,3.07-98.07h350.86s13.81,60.57,70.07,83.65c1.02,16.35,2.05,20.91,2.05,20.91,0,0,16.88,4.09,16.88-14.66s-4.29-134.99-4.29-134.99c0,0-16.68-12.35-49.41-10.19-32.73,2.16-394.34,.48-394.34,.48,0,0-16.37,7.21-16.37,30.29s.68,124.03,.68,124.03c0,0,13.64,10.77,36.65,9.71,23.02-1.06,224.53-4.66,224.53-4.66Z"/>
      <rect class="cls-3" x="743.49" y="223.08" width="464.41" height="159.77" rx="19.4" ry="19.4"/>
      <path class="cls-14" d="M1188.49,390.07h-425.6c-13.46,0-24.4-10.95-24.4-24.4v-123.18c0-13.46,10.95-24.4,24.4-24.4h425.6c13.46,0,24.4,10.95,24.4,24.4v123.18c0,13.46-10.95,24.4-24.4,24.4Zm-425.6-161.99c-7.94,0-14.4,6.46-14.4,14.4v123.18c0,7.94,6.46,14.4,14.4,14.4h425.6c7.94,0,14.4-6.46,14.4-14.4v-123.18c0-7.94-6.46-14.4-14.4-14.4h-425.6Z"/>
      <path class="cls-14" d="M691.32,270.39H346.78c-23.31,0-43.7,15.66-49.63,38.13l-20.62,78.08-49.35-1.53s-22.76-10.7-16.63-42.05c6.14-31.35,23.82-92.84,23.82-92.84,0,0,12.24-28.63,62.11-27.1,49.87,1.53,379.49,0,379.49,0,0,0,23.54-3.16,15.36,47.31Z"/>
      <path class="cls-3" d="M235.21,382.86h429.38c14.76,0,26.73-11.49,26.73-25.66v-114.09c0-10.39-8.78-18.82-19.61-18.82H282.37c-26.64,0-49.62,17.95-55.03,42.99l-18.31,84.71c-3.44,15.93,9.23,30.87,26.17,30.87Z"/>
      <path class="cls-14" d="M664.59,391.19H235.21c-9.72,0-18.76-4.29-24.82-11.76-5.9-7.28-8.18-16.68-6.25-25.79l18.31-86.49c5.87-27.73,31.07-47.85,59.92-47.85h389.34c13.57,0,24.61,10.86,24.61,24.21v116.49c0,17.2-14.23,31.2-31.73,31.2ZM282.37,229.3c-24.16,0-45.24,16.79-50.14,39.93l-18.31,86.49c-1.3,6.15,.24,12.5,4.23,17.43,4.15,5.12,10.36,8.05,17.05,8.05h429.38c11.98,0,21.73-9.51,21.73-21.2v-116.49c0-7.84-6.55-14.21-14.61-14.21H282.37Z"/>
      <line class="cls-11" x1="1555.69" y1="222.58" x2="1555.69" y2="387.28"/>
      <path class="cls-3" d="M1625.59,207.53s66.75,155.25,81.75,166.46c15,11.21,35.06,13.29,35.06,13.29,0,0-73.02-144.79-116.81-179.76Z"/>
      <path class="cls-14" d="M1742.4,390.78c-.3,0-.6-.04-.9-.12-.94-.25-23.17-6.27-37.92-18.44-23.2-19.13-83.37-166.86-85.92-173.14-.73-1.79,.13-3.83,1.93-4.56,1.79-.73,3.83,.13,4.56,1.93,21.37,52.62,66.41,155.96,83.89,170.37,13.56,11.18,35.06,17.02,35.27,17.07,1.87,.5,2.98,2.42,2.48,4.28-.42,1.57-1.83,2.6-3.38,2.6Z"/>
      <path class="cls-8" d="M55.58,418.46v3.06l-13.84,143.74h-1.89c-9.96,0-18.03,8.04-18.03,17.97v97.86c0,9.92,8.07,17.97,18.03,17.97h2.7l13.03,64.41v3.77c0,10.49,8.53,18.99,19.05,18.99h108.31c6.25,0,12.05-3.25,15.29-8.58l30.4-49.97c11.58-19.03,32.29-30.65,54.62-30.65h213.77c23.48,0,45.1,12.71,56.45,33.19l21.43,38.66c5.93,10.7,17.22,17.34,29.49,17.34h640.67c9.62,0,18.35-5.59,22.35-14.3l43.79-95.36c10.41-22.66,32.69-37.13,57.17-37.13h109.15c31.85,0,60.59,19.07,72.87,48.35l36.77,87.66c2.74,6.53,9.15,10.79,16.25,10.79h162.23c18.22,0,32.99-14.72,32.99-32.88v-194.96c0-49.24-8.99-96.39-25.41-139.91H55.58Z"/>
      <rect class="cls-13" x="12.51" y="706.7" width="51.94" height="59.64" rx="10.34" ry="10.34" transform="translate(76.95 1473.03) rotate(180)"/>
      <rect class="cls-1" x="12.51" y="706.7" width="51.94" height="59.64" rx="10.34" ry="10.34" transform="translate(76.95 1473.03) rotate(180)"/>
      <path class="cls-8" d="M11.23,722.94h56.62v26.76H11.23c-6.2,0-11.23-4.62-11.23-10.32v-6.12c0-5.7,5.03-10.32,11.23-10.32Z"/>
      <rect class="cls-13" x="1782.6" y="705.68" width="51.94" height="59.64" rx="10.34" ry="10.34"/>
      <rect class="cls-1" x="1782.6" y="705.68" width="51.94" height="59.64" rx="10.34" ry="10.34"/>
      <path class="cls-8" d="M1831.91,749.07h-38.43s-4.48,0-4.48,0h-9.81s0-26.76,0-26.76h52.71c5.78,0,10.46,4.62,10.46,10.32v6.12c0,5.7-4.68,10.32-10.46,10.32Z"/>
      <rect class="cls-15" x="1791.65" y="547.33" width="26.08" height="76.97" rx="10.04" ry="10.04"/>
      <polygon class="cls-2" points="1779.91 437.68 54.23 437.68 55.71 415.65 1772.72 415.65 1779.91 437.68"/>
      <path class="cls-9" d="M46.59,397.56H1764.01c11.39,0,20.64,9.25,20.64,20.64H47.34c-5.9,0-10.7-4.79-10.7-10.7h0c0-5.49,4.46-9.95,9.95-9.95Z"/>
      <path class="cls-1" d="M1741.6,765.12h-109.57c-9.96,0-19.04-6.23-22.58-15.51l-26.28-68.76c-11.96-31.3-42.58-52.32-76.18-52.32h-252.06c-4.61,0-8.36-3.74-8.36-8.34v-196.02c0-2.1,.1-4.04,.3-5.92l3.98,.43c-.19,1.73-.28,3.53-.28,5.49v196.02c0,2.39,1.96,4.34,4.36,4.34h252.06c35.25,0,67.37,22.06,79.92,54.9l26.28,68.76c2.96,7.74,10.53,12.94,18.85,12.94h109.57c9.02,0,16.49-7.04,17.01-16.02,.4-7,1.06-15.38,1.83-25.07,5.46-69.15,15.62-197.84-30.96-295.08-1.14-1.93-2.38-3.8-3.67-5.55l3.22-2.38c1.39,1.88,2.72,3.89,3.94,5.97l.08,.15c47.08,98.23,36.87,227.67,31.38,297.21-.76,9.67-1.42,18.03-1.82,24.99-.64,11.1-9.86,19.79-21,19.79Z"/>
      <path class="cls-6" d="M1725.8,419.39c-13.9-18.79-32.17-20.91-32.35-20.93l-1.11-.12-.49-1-97.67-202.08h-335.28v202.24l-.26,.46c-4.54,7.95-7,13.34-7.81,20.72l-3.98-.44c.86-7.88,3.5-13.8,8.05-21.8V191.26h341.79l98.3,203.39c4.46,.75,20.91,4.63,34.02,22.37l-3.22,2.38Z"/>
      <path class="cls-1" d="M334.21,560.2h-57.31c-5.51,0-10-4.49-10-10v-62.83c0-5.51,4.49-10,10-10h57.31c5.51,0,10,4.49,10,10v62.83c0,5.51-4.49,10-10,10Zm-57.31-78.83c-3.31,0-6,2.69-6,6v62.83c0,3.31,2.69,6,6,6h57.31c3.31,0,6-2.69,6-6v-62.83c0-3.31-2.69-6-6-6h-57.31Z"/>
      <path class="cls-15" d="M34.5,564.32h3.86v134.73h-3.94c-6.95,0-12.6-5.64-12.6-12.6v-109.46c0-7,5.68-12.68,12.68-12.68Z"/>
      <path class="cls-6" d="M713.05,419.29l-3.64-1.66c2.06-4.51,4.89-8.57,8.4-12.07l7.96-7.93V191.26h519.93v205.84l-1.22,.52s-6.22,3.12-10.19,19.34c-.12,.5-.23,1.02-.31,1.55l-3.95-.62c.1-.64,.23-1.27,.38-1.88,3.54-14.48,8.86-19.68,11.29-21.37V195.26h-511.93v204.02l-9.13,9.1c-3.17,3.16-5.72,6.83-7.58,10.9Z"/>
      <path class="cls-1" d="M1214.55,768.33h-492.54c-9,0-16.32-7.3-16.32-16.27V434.71c0-5.93,1.25-11.68,3.72-17.08l3.64,1.66c-2.23,4.88-3.36,10.07-3.36,15.42v317.35c0,6.77,5.53,12.27,12.32,12.27h492.54c7.36,0,13.34-5.96,13.34-13.29l1.86-329.61c0-1.19,.1-2.38,.28-3.53l3.95,.61c-.15,.96-.23,1.95-.23,2.94l-1.86,329.6c0,9.52-7.78,17.28-17.34,17.28Z"/>
      <rect class="cls-1" x="1075.94" y="469.17" width="102.29" height="84.61" rx="21.45" ry="21.45"/>
      <rect class="cls-8" x="1088.73" y="472.74" width="110.48" height="75.95" rx="21.45" ry="21.45"/>
      <path class="cls-16" d="M1107.22,512.86c-5.17-.5-5.17-3.8,0-4.3,21.06-2.02,50.35-4.73,55.67-4.73,8.47,0,15.34,3.08,15.34,6.88s-6.87,6.88-15.34,6.88c-5.32,0-34.61-2.71-55.67-4.73Z"/>
      <rect class="cls-1" x="1266.21" y="469.17" width="102.29" height="84.61" rx="21.45" ry="21.45"/>
      <rect class="cls-8" x="1278.99" y="472.74" width="110.48" height="75.95" rx="21.45" ry="21.45"/>
      <path class="cls-16" d="M1297.48,512.86c-5.17-.5-5.17-3.8,0-4.3,21.06-2.02,50.35-4.73,55.67-4.73,8.47,0,15.34,3.08,15.34,6.88s-6.87,6.88-15.34,6.88c-5.32,0-34.61-2.71-55.67-4.73Z"/>
      <g>
        <path class="cls-4" d="M203.4,240.78l.71-3.46c.74-3.59-2.01-6.96-5.7-6.96h-62.29c-2.76,0-5.14,1.93-5.7,4.63l-.71,3.46c-.74,3.59,2.01,6.96,5.7,6.96h62.29c2.76,0,5.14-1.93,5.7-4.63Z"/>
        <path class="cls-4" d="M131.32,265.23h62.29c2.76,0,5.14-1.93,5.7-4.63l.71-3.46c.74-3.59-2.01-6.96-5.7-6.96h-62.29c-2.76,0-5.14,1.93-5.7,4.63l-.71,3.46c-.74,3.59,2.01,6.96,5.7,6.96Z"/>
        <path class="cls-4" d="M127.23,285.06h62.29c2.76,0,5.14-1.93,5.7-4.63l.71-3.46c.74-3.59-2.01-6.96-5.7-6.96h-62.29c-2.76,0-5.14,1.93-5.7,4.63l-.71,3.46c-.74,3.59,2.01,6.96,5.7,6.96Z"/>
        <path class="cls-4" d="M123.14,304.88h62.29c2.76,0,5.14-1.93,5.7-4.63l.71-3.46c.74-3.59-2.01-6.96-5.7-6.96h-62.29c-2.76,0-5.14,1.93-5.7,4.63l-.71,3.46c-.74,3.59,2.01,6.96,5.7,6.96Z"/>
        <path class="cls-4" d="M119.05,324.7h62.29c2.76,0,5.14-1.93,5.7-4.63l.71-3.46c.74-3.59-2.01-6.96-5.7-6.96h-62.29c-2.76,0-5.14,1.93-5.7,4.63l-.71,3.46c-.74,3.59,2.01,6.96,5.7,6.96Z"/>
        <path class="cls-4" d="M114.96,344.52h62.29c2.76,0,5.14-1.93,5.7-4.63l.71-3.46c.74-3.59-2.01-6.96-5.7-6.96h-62.29c-2.76,0-5.14,1.93-5.7,4.63l-.71,3.46c-.74,3.59,2.01,6.96,5.7,6.96Z"/>
        <path class="cls-4" d="M105.89,353.92l-.71,3.46c-.74,3.59,2.01,6.96,5.7,6.96h62.29c2.76,0,5.14-1.93,5.7-4.63l.71-3.46c.74-3.59-2.01-6.96-5.7-6.96h-62.29c-2.76,0-5.14,1.93-5.7,4.63Z"/>
      </g>
      <rect class="cls-14" x="299.74" y="114.24" width="12.79" height="75.95"/>
      <rect class="cls-14" x="790.23" y="82.63" width="12.79" height="110.62"/>
      <g>
        <path class="cls-7" d="M1494.44,121.43c-17.94-7.75-36.38-14.68-55.33-20.9-.01,1.68-1.32,3.34-3.45,3.08-50.28-6-184.35-20.83-280.28-20.72-90.42,.1-684.75,18.94-973.93,28.27,.55,1.25,.86,1.95,.86,1.95h0s0,0,0,0h0c-15.55,2.83-28.85,5.56-40.19,8.12-10.03,2.27-8.14,17.04,2.15,16.7,223.09-7.26,966.32-31.22,1068.32-31.33,95.93-.11,230,14.72,280.28,20.72,3.55,.42,4.86-4.48,1.58-5.9Z"/>
        <polygon class="cls-7" points="182.31 113.12 182.31 113.12 182.31 113.12 182.31 113.12"/>
        <polygon class="cls-7" points="125.11 89.41 125.11 89.41 125.11 89.41 125.11 89.41"/>
        <path class="cls-1" d="M570.51,74.17c-79.98,4.36-147.25,9.46-203.77,14.85-3.42,.33-6.71-1.32-8.5-4.24-3.3-5.39-8.61-13.44-15.81-22.46-19.17-23.99-51.81-54.88-96.16-61.16-6.97-.99-14.22-1.38-21.76-1.03-17.43,2.21,41.04,84.52,46.51,99.49,0,0,.02,0,.03,0-3.98,.51-7.87,1.02-11.69,1.53-2.22,.3-4.41-.66-5.69-2.49-10.17-14.45-31.54-41.24-59.66-57.09-8.35-4.71-17.28-8.46-26.7-10.63-3.3-.76-6.5,.13-8.87,2.03-2.47,1.99-4.03,5.08-3.81,8.59,.2,3.11,.93,6.89,2.54,11.42,5.36,15.11,20.52,49.64,24.3,58.19,289.19-9.34,883.51-28.17,973.93-28.27,95.93-.11,230,14.72,280.28,20.72,2.13,.25,3.44-1.41,3.45-3.08-214.35-70.29-494.63-46.74-868.61-26.36Zm-356.7,1.74s.01,0,.02,0c0,0-.01,0-.02,0-.24-.66-.58-1.45-1.02-2.35,.43,.91,.78,1.69,1.02,2.35Zm-11.66,1.53c-.55,.07-1.11,.07-1.64,0-.54-.08-1.06-.23-1.55-.44,.49,.22,1.01,.36,1.55,.44,.54,.08,1.09,.08,1.64,0,3.82-.51,7.71-1.02,11.69-1.53,0,0,0,0,0,0-3.98,.51-7.87,1.02-11.69,1.53Z"/>
      </g>
      <path class="cls-9" d="M133.52,185.99H1615.84c8.02,0,14.53,6.51,14.53,14.53H123.94v-4.95c0-5.28,4.29-9.57,9.57-9.57Z"/>
      <path class="cls-10" d="M1796.83,630.24h0c-6.44,0-11.65-5.2-11.65-11.61v-71.09c0-6.69,5.44-12.11,12.15-12.11h9.74c4.27,0,7.56,3.73,7.03,7.95l-10.23,80.68c-.45,3.53-3.46,6.18-7.03,6.18Z"/>
    </g>
  </g>
</svg>