<?xml version="1.0" encoding="UTF-8"?>
<svg id="Layer_2" data-name="Layer 2" xmlns="http://www.w3.org/2000/svg" xmlns:xlink="http://www.w3.org/1999/xlink" viewBox="0 0 22.95 22.95">
  <defs>
    <style>
      .cls-1 {
        fill: #fef0da;
      }

      .cls-1, .cls-2, .cls-3, .cls-4, .cls-5, .cls-6, .cls-7, .cls-8, .cls-9, .cls-10, .cls-11 {
        fill-rule: evenodd;
      }

      .cls-2 {
        fill: #c6b396;
      }

      .cls-3 {
        fill: #f0ddc5;
      }

      .cls-4 {
        fill: #2f1b12;
      }

      .cls-5 {
        fill: #ffffe9;
      }

      .cls-6 {
        fill: #816e62;
      }

      .cls-7 {
        fill: #836c4a;
      }

      .cls-8 {
        fill: url(#New_Gradient_18);
      }

      .cls-9 {
        fill: #8f7859;
      }

      .cls-10 {
        fill: #fffff2;
      }
    </style>
    <linearGradient id="New_Gradient_18" data-name="New Gradient 18" x1="-41.93" y1="461.65" x2="-64.88" y2="461.65" gradientTransform="translate(281.96 42.77) rotate(90) scale(.59)" gradientUnits="userSpaceOnUse">
      <stop offset=".35" stop-color="#47392f"/>
      <stop offset=".65" stop-color="#78625a"/>
    </linearGradient>
  </defs>
  <g id="van">
    <g id="wheels">
      <g>
        <path class="cls-3" d="M22.95,11.48c0,6.34-5.14,11.48-11.48,11.48S0,17.82,0,11.48,5.14,0,11.48,0s11.48,5.14,11.48,11.48Z"/>
        <path class="cls-10" d="M21.6,6.07C19.67,2.46,15.86,0,11.48,0,5.14,0,0,5.14,0,11.48c0,2.09,.56,4.05,1.54,5.74C.67,15.61,.19,13.76,.19,11.81,.19,5.47,5.32,.33,11.66,.33c4.25,0,7.96,2.31,9.94,5.74h0Z"/>
        <g>
          <path class="cls-9" d="M19.36,3.91c-1.99-2.07-4.79-3.36-7.88-3.36C5.44,.55,.55,5.44,.55,11.48c0,3.1,1.29,5.89,3.36,7.88-1.89-1.97-3.04-4.63-3.04-7.57C.87,5.76,5.76,.87,11.79,.87c2.94,0,5.6,1.16,7.57,3.04h0Z"/>
          <path class="cls-7" d="M16.73,2.84c-1.53-.94-3.33-1.47-5.26-1.47C5.89,1.37,1.37,5.89,1.37,11.48c0,3.93,2.24,7.33,5.51,9-2.91-1.77-4.85-4.98-4.85-8.64C2.03,6.26,6.56,1.74,12.14,1.74c1.65,0,3.22,.4,4.6,1.1h0Z"/>
        </g>
        <g>
          <path class="cls-5" d="M3.97,19.26c1.99,2.07,4.79,3.36,7.88,3.36,6.04,0,10.93-4.89,10.93-10.93,0-3.1-1.29-5.89-3.36-7.88,1.88,1.97,3.04,4.63,3.04,7.57,0,6.04-4.89,10.93-10.93,10.93-2.94,0-5.6-1.16-7.57-3.04h0Z"/>
          <path class="cls-5" d="M6.6,20.33c1.53,.94,3.33,1.47,5.26,1.47,5.58,0,10.11-4.53,10.11-10.11,0-3.93-2.24-7.33-5.51-9,2.91,1.77,4.85,4.98,4.85,8.64,0,5.58-4.53,10.11-10.11,10.11-1.65,0-3.22-.4-4.59-1.1h0Z"/>
        </g>
        <path class="cls-2" d="M20.82,11.48c0,5.16-4.18,9.34-9.34,9.34S2.14,16.64,2.14,11.48,6.32,2.13,11.48,2.13s9.34,4.18,9.34,9.34Z"/>
        <path class="cls-1" d="M18.77,5.64c-1.71-2.14-4.34-3.51-7.3-3.51-3.71,0-6.92,2.17-8.43,5.31,1.71,2.14,4.34,3.51,7.3,3.51,3.71,0,6.92-2.17,8.43-5.31h0Z"/>
        <path class="cls-6" d="M18.88,11.48c0,4.09-3.32,7.41-7.41,7.41s-7.41-3.32-7.41-7.41,3.32-7.41,7.41-7.41,7.41,3.32,7.41,7.41Z"/>
        <path class="cls-8" d="M18.2,11.48c0,3.71-3.01,6.72-6.72,6.72s-6.72-3.01-6.72-6.72,3.01-6.72,6.72-6.72,6.72,3.01,6.72,6.72Z"/>
        <path class="cls-4" d="M4.78,10.86c1.9,.75,4.21,1.18,6.69,1.18s4.79-.44,6.7-1.18c-.31-3.42-3.19-6.11-6.7-6.11s-6.38,2.68-6.69,6.11h0Z"/>
        <path class="cls-11" d="M3.5,14.24c-.28,.13-.37,.55-.2,.93,.18,.39,.55,.6,.83,.47,.28-.13,.37-.55,.2-.94-.18-.39-.55-.6-.83-.47h0Zm3.25,4.24c-.15,.27,.03,.66,.4,.87,.37,.21,.8,.15,.95-.12,.15-.27-.03-.66-.4-.87-.37-.2-.8-.15-.95,.12h0ZM14.85,3.75c-.15,.27,.03,.66,.4,.86,.37,.21,.8,.15,.95-.12,.15-.27-.03-.66-.4-.87-.37-.21-.8-.15-.95,.12h0Zm-5.58,15.87c-.06,.31,.24,.61,.66,.69,.42,.07,.8-.12,.86-.42,.05-.31-.24-.61-.66-.69-.42-.08-.8,.12-.86,.42h0ZM12.17,3.08c-.05,.31,.24,.62,.66,.69,.42,.07,.8-.12,.86-.42,.05-.31-.24-.61-.66-.69-.42-.07-.8,.12-.86,.42h0Zm-.98-.02c-.04-.31-.41-.52-.84-.46-.42,.05-.73,.35-.69,.66,.04,.31,.41,.52,.84,.46,.42-.05,.73-.35,.69-.66h0Zm2.11,16.66c-.04-.31-.41-.52-.83-.46-.42,.05-.73,.35-.69,.66,.04,.31,.41,.52,.84,.46,.42-.05,.73-.35,.69-.66h0ZM8.48,3.6c-.14-.28-.56-.35-.94-.16-.38,.19-.58,.57-.45,.84,.14,.28,.56,.35,.94,.17,.38-.19,.58-.57,.45-.85h0Zm7.38,15.09c-.14-.28-.56-.35-.94-.17-.38,.19-.58,.57-.44,.84,.14,.28,.56,.35,.94,.17,.38-.19,.58-.57,.44-.84h0ZM6.39,4.75c-.21-.23-.63-.18-.95,.1-.31,.29-.4,.71-.19,.94,.21,.23,.64,.19,.95-.1,.31-.29,.4-.71,.19-.94h0Zm11.31,12.42c-.21-.23-.63-.18-.95,.1-.31,.29-.4,.7-.19,.94,.21,.23,.64,.18,.95-.1,.32-.29,.4-.71,.19-.94h0ZM4.49,6.75c-.27-.15-.66,.03-.87,.4-.2,.37-.15,.8,.12,.95,.27,.15,.66-.03,.87-.4,.2-.37,.15-.8-.12-.95h0Zm14.71,8.11c-.27-.15-.66,.03-.87,.4-.21,.37-.15,.8,.12,.95,.27,.15,.66-.03,.87-.4,.21-.37,.15-.8-.12-.95h0ZM3.49,8.79c-.3-.07-.63,.21-.73,.62-.1,.41,.07,.81,.37,.88,.3,.07,.63-.21,.73-.62,.1-.42-.07-.81-.37-.88h0Zm16.34,3.9c-.3-.07-.63,.21-.73,.62-.1,.41,.07,.81,.37,.88,.3,.07,.63-.2,.73-.62,.1-.41-.07-.81-.37-.88h0Zm-15.01,3.98c-.23,.21-.18,.64,.12,.95,.29,.31,.71,.39,.94,.18,.23-.21,.18-.64-.12-.95-.29-.31-.71-.39-.94-.18h0Zm-1.78-5.15c-.31,.03-.53,.4-.49,.82,.04,.42,.32,.74,.63,.71,.31-.03,.53-.4,.49-.82-.04-.42-.33-.74-.63-.71h0Zm16.72-1.59c-.31,.03-.53,.4-.49,.82,.04,.42,.32,.74,.63,.71,.31-.03,.53-.4,.49-.82-.04-.42-.32-.74-.63-.71h0Zm-2.69-4.74c-.23,.21-.17,.64,.12,.95,.29,.31,.71,.39,.94,.18,.23-.21,.17-.64-.12-.95-.29-.31-.71-.39-.94-.18h0Zm1.74,2.15c-.28,.13-.37,.55-.2,.93,.17,.39,.55,.6,.83,.47,.28-.13,.37-.55,.2-.93-.17-.39-.55-.6-.83-.47h0Z"/>
      </g>
    </g>
  </g>
</svg>