<?xml version="1.0" encoding="UTF-8"?>
<svg id="Layer_2" data-name="Layer 2" xmlns="http://www.w3.org/2000/svg" xmlns:xlink="http://www.w3.org/1999/xlink" viewBox="0 0 35.54 35.54">
  <defs>
    <style>
      .cls-1 {
        fill: url(#New_Gradient_10);
      }

      .cls-1, .cls-2, .cls-3 {
        fill-rule: evenodd;
      }

      .cls-2 {
        fill: url(#New_Gradient_16);
      }
    </style>
    <linearGradient id="New_Gradient_16" data-name="New Gradient 16" x1="-289.59" y1="210.92" x2="-275.09" y2="235.06" gradientTransform="translate(296.19 -211.99)" gradientUnits="userSpaceOnUse">
      <stop offset=".34" stop-color="#a5aeac"/>
      <stop offset=".66" stop-color="#000"/>
    </linearGradient>
    <linearGradient id="New_Gradient_10" data-name="New Gradient 10" x1="-277.64" y1="242.43" x2="-259.75" y2="233.31" gradientTransform="translate(289.08 -211.99)" gradientUnits="userSpaceOnUse">
      <stop offset=".18" stop-color="#000"/>
      <stop offset=".53" stop-color="#a7b0ae"/>
      <stop offset=".82" stop-color="#000"/>
    </linearGradient>
  </defs>
  <g id="van">
    <g id="wheels">
      <g>
        <path class="cls-3" d="M35.54,17.77c0,9.81-7.96,17.77-17.77,17.77S0,27.59,0,17.77,7.96,0,17.77,0s17.77,7.96,17.77,17.77Z"/>
        <path class="cls-2" d="M28.64,4.51c-2.96-2.43-6.74-3.88-10.87-3.88C8.3,.63,.63,8.3,.63,17.77c0,.91,.07,1.8,.21,2.66,0-.21-.01-.41-.01-.62C.82,9.81,8.93,1.7,18.94,1.7c3.57,0,6.89,1.03,9.7,2.81h0Z"/>
        <path class="cls-1" d="M31.89,17.77c0-.77-.06-1.53-.18-2.26-.35,3.41-1.79,6.5-3.97,8.91-2.15,3.21-5.81,5.33-9.96,5.33-.64,0-1.27-.05-1.89-.15-3.46-.04-6.65-1.2-9.23-3.13,2.58,3.3,6.6,5.42,11.12,5.42,7.8,0,14.12-6.32,14.12-14.12h0Z"/>
      </g>
    </g>
  </g>
</svg>