<?xml version="1.0" encoding="UTF-8"?>
<svg id="Layer_2" data-name="Layer 2" xmlns="http://www.w3.org/2000/svg" viewBox="0 0 167.21 32.38">
  <defs>
    <style>
      .cls-1 {
        fill: #dbc699;
      }

      .cls-2 {
        fill: #fff;
      }

      .cls-3 {
        fill: #fffdfc;
      }

      .cls-4 {
        fill: #f51a07;
      }

      .cls-5 {
        fill: #ae0200;
      }

      .cls-6 {
        fill: #1b1c1c;
      }

      .cls-7 {
        fill: #4d5252;
      }

      .cls-8 {
        fill: #14224e;
      }

      .cls-9 {
        opacity: .3;
      }

      .cls-10 {
        fill: #b29c69;
      }

      .cls-11 {
        fill: #68593e;
      }

      .cls-12 {
        fill: #0a0a09;
        opacity: .35;
      }

      .cls-13 {
        fill: #606060;
      }
    </style>
  </defs>
  <g id="_Ñëîé_1" data-name="Ñëîé 1">
    <g>
      <g>
        <path class="cls-8" d="M27.55,27.32c0,.06-.02,.12-.04,.18-.2,.38-.42,.7-.68,.98h-3.25l.79-1.46h2.96c.13,0,.21,.15,.21,.3Z"/>
        <g>
          <path class="cls-4" d="M67.63,28.04v-8.08c-.61,.53-1.12,.96-1.65,1.35-1.43,1.07-3.46,2.42-6.14,3.68l3.06,3.06c.55,.55,1.3,.86,2.07,.86h1.79c.48,0,.87-.39,.87-.87Z"/>
          <path class="cls-5" d="M67.63,19.96v-.11c-2.7,1.08-6.17,2.06-10,2.93l2.21,2.21c2.68-1.26,4.71-2.61,6.14-3.68,.53-.4,1.05-.82,1.65-1.35Z"/>
        </g>
        <path class="cls-1" d="M73.04,14.18c-13.8-2.62-25.64-3.51-28.08-3.68-16.13-1.16-25.18-.24-28.01,.1-5.42,.65-9.78,1.78-13.72,3.29-.29,.11-.58,.22-.85,.33-.9,.36-1.69,.71-2.38,1.02,.01-.41,.08-.81,.2-1.21,.24-.82,.69-1.61,1.33-2.36,3.7-4.39,13.72-7.54,25.48-7.54,13.35,0,39.97,4.05,45.44,9.37,.23,.23,.43,.46,.58,.69Z"/>
        <path class="cls-10" d="M73.46,15.42c0,.19-.03,.37-.08,.56-17.3,6.25-35.12,6.69-35.12,6.69-12.66,.31-25.6-1.54-32.02-3.91-1.56-.58-2.78-1-3.98-1.39-.68-.22-1.36-.43-2.07-.65-.07-.26-.12-.52-.15-.79,.81,.23,1.64,.45,2.36,.6,.09,.02,.18,.03,.26,.05,3.43,.63,9.25,1.85,17.39,2.41,6.13,.43,15.85,1.07,28.4,.1,7.09-.55,11.44-1.2,13.1-1.52,3.87-.73,7.26-1.23,11.88-2.52,.03,.12,.04,.24,.04,.36Z"/>
        <path class="cls-11" d="M73.38,15.98c-1.79,5.98-31.88,10.74-46.35,10.74-11.77,0-21.78-3.15-25.49-7.54-.66-.79-1.12-1.61-1.36-2.46,.72,.22,1.39,.43,2.07,.65,1.19,.39,2.42,.81,3.98,1.39,6.42,2.37,19.36,4.22,32.02,3.91,0,0,17.82-.43,35.12-6.69Z"/>
        <path class="cls-4" d="M73.42,15.06c-4.62,1.29-8.01,1.79-11.88,2.52-1.66,.31-6.01,.97-13.1,1.52-12.55,.97-22.26,.33-28.4-.1-8.13-.57-13.95-1.79-17.39-2.41-.08-.01-.17-.03-.26-.05-.72-.14-1.55-.37-2.36-.6-.02-.17-.03-.34-.03-.51,0-.03,0-.06,0-.09,.72,.14,1.56,.28,2.45,.41,5.98,.86,14.88,1.42,14.88,1.42,20.9,.79,31.58,1.15,42.41-.1,4.95-.57,9.31-1.35,13.55-2.43,.06,.14,.1,.28,.13,.42Z"/>
        <path class="cls-3" d="M73.29,14.64c-4.24,1.08-8.6,1.85-13.55,2.43-10.83,1.25-21.5,.88-42.41,.1,0,0-8.9-.56-14.88-1.42-.9-.13-1.73-.27-2.45-.41,0-.03,0-.07,0-.1,.68-.31,1.48-.66,2.38-1.02,.28-.11,.56-.22,.85-.33,3.94-1.51,8.29-2.64,13.72-3.29,2.83-.34,11.89-1.25,28.01-.1,2.44,.18,14.28,1.06,28.08,3.68,.1,.15,.19,.31,.25,.46Z"/>
        <path class="cls-10" d="M72.46,13.49c-.6-.21-1.23-.44-1.9-.68-4.15-1.48-5.35-1.85-6.76-2.22-1.78-.46-3.4-.8-6.09-1.25-6.02-1.02-10.7-1.5-11.11-1.54-10.23-1.05-15.8-1.61-23.57-1.45-1.25,.03-7.75,.2-14.2,2.22-1.63,.51-3.55,1.23-5.6,2.71-.49,.35-.93,.71-1.34,1.07-.65,.57-1.21,1.14-1.68,1.69,.24-.82,.69-1.61,1.33-2.36,3.7-4.39,13.72-7.54,25.48-7.54,7.92,0,20.53,1.43,30.6,3.7,3.83,.87,7.3,1.85,10,2.93,2.17,.86,3.85,1.78,4.83,2.74Z"/>
        <path class="cls-5" d="M2.46,15.48c0,.09,0,.18,0,.26,0,.27-.03,.54-.06,.79-.03,.29-.08,.57-.14,.84-.16,.72-.41,1.35-.72,1.82-.66-.79-1.12-1.61-1.36-2.46-.07-.26-.12-.52-.15-.79-.02-.17-.03-.34-.03-.51,0-.03,0-.06,0-.09,0-.03,0-.07,0-.1,0-.19,.03-.39,.06-.58,.3,.72,.85,1.21,1.48,1.21,.34,0,.65-.14,.92-.38Z"/>
        <path class="cls-4" d="M67.63,2.56V10.64c-.61-.53-1.12-.96-1.65-1.35-1.43-1.07-3.46-2.42-6.14-3.68l3.06-3.06c.55-.55,1.3-.86,2.07-.86h1.79c.48,0,.87,.39,.87,.87Z"/>
        <path class="cls-5" d="M67.63,10.64v.11c-2.7-1.08-6.17-2.06-10-2.93l2.21-2.21c2.68,1.26,4.71,2.61,6.14,3.68,.53,.4,1.05,.82,1.65,1.35Z"/>
        <path class="cls-12" d="M57.27,14.99c1.14,.06,2.03,.32,3.68,1.26,.84,.48,1.41,.8,1.93,1.5,.82,1.09,.71,2.05,1.4,2.27,.62,.19,1.3-.38,1.59-.63,.83-.7,1.07-1.65,1.26-2.41,.12-.47,.24-1.17,.19-2.03l-10.06,.05Z"/>
        <path class="cls-4" d="M57.09,14.05v1.11c0,.23,.19,.41,.41,.4l9.89-.27c.21,0,.37-.18,.37-.38h0c0-.2-.15-.36-.35-.38l-9.89-.87c-.23-.02-.44,.16-.44,.4Z"/>
        <path class="cls-3" d="M58.73,14.99h-.83c-.23,0-.42-.19-.42-.42h0c0-.23,.19-.42,.42-.42h.83c.23,0,.42,.19,.42,.42h0c0,.23-.19,.42-.42,.42Z"/>
        <path class="cls-4" d="M2.46,15.42v.06c-.27,.24-.58,.38-.92,.38-.63,0-1.17-.48-1.48-1.21,.03-.21,.08-.42,.14-.63,.24-.82,.69-1.61,1.33-2.36,.13,.2,.25,.42,.35,.68,.23,.53,.4,1.17,.49,1.87,.05,.39,.08,.79,.08,1.21Z"/>
        <path class="cls-8" d="M26.99,28.48l-.59,1.12h-3.44s.03-.06,.05-.1l.56-1.03h3.41Z"/>
        <path class="cls-13" d="M39.6,28.52l-.47,1c-.81,1.78-2.19,2.85-3.67,2.85h-11.46c-.24,0-.48-.1-.67-.28-.2-.19-.36-.44-.46-.76-.18-.57-.14-1.22,.1-1.73h1.59c.82,0,1.61-.39,2.24-1.08h12.8Z"/>
        <path class="cls-6" d="M40.89,25.76l-1.29,2.76h-12.8s.02-.03,.03-.04c.25-.28,.48-.61,.68-.98,.03-.05,.04-.12,.04-.18,0-.16-.09-.3-.21-.3h-2.96l.27-.5s9.85-.13,13.2-.43c.71-.06,3.05-.33,3.05-.33Z"/>
        <polygon class="cls-2" points="25.09 27.02 23.7 29.61 23.48 29.61 24.88 27.02 25.09 27.02"/>
        <polygon class="cls-2" points="25.49 27.02 24.09 29.61 23.95 29.61 25.36 27.02 25.49 27.02"/>
        <path class="cls-2" d="M36.01,32.08h-9.92c-.27,0-.48-.22-.48-.48h0c0-.27,.22-.48,.48-.48h9.92c.27,0,.48,.22,.48,.48h0c0,.27-.22,.48-.48,.48Z"/>
        <path class="cls-9" d="M27.55,27.32c0,.06-.02,.12-.04,.18-.2,.38-.42,.7-.68,.98h-3.25l.79-1.46h2.96c.13,0,.21,.15,.21,.3Z"/>
      </g>
      <path class="cls-3" d="M155.92,21.21c1.5,1.04,2.76,1.77,3.93,2.38,1.17,.61,2.26,1.08,3.43,1.49,1.17,.41,2.42,.76,3.93,.97-2.13,1.62-4.2,2.8-6.2,3.66-2,.87-3.94,1.42-5.83,1.75-1.89,.33-3.72,.45-5.52,.41-1.79-.04-3.54-.22-5.26-.51s-3.4-.68-5.06-1.14c-1.66-.45-3.3-.97-4.92-1.53-1.62-.55-3.23-1.14-4.83-1.74-1.6-.6-3.2-1.21-4.81-1.81-1.6-.6-3.21-1.19-4.83-1.74-1.62-.55-3.26-1.07-4.92-1.53-1.66-.45-3.34-.85-5.06-1.14-1.72-.29-3.47-.48-5.26-.51-1.79-.04-3.63,.08-5.52,.41s-3.83,.89-5.83,1.75c-2,.87-4.07,2.04-6.2,3.66V5.84c2.13-1.62,4.2-2.8,6.2-3.66,2-.87,3.94-1.42,5.83-1.75,1.89-.33,3.72-.45,5.52-.41,1.79,.04,3.54,.22,5.26,.51,1.72,.29,3.4,.68,5.06,1.14,1.66,.45,3.3,.97,4.92,1.53,1.62,.55,3.23,1.14,4.83,1.74,1.6,.6,3.2,1.21,4.81,1.81,1.6,.6,3.21,1.19,4.83,1.74,1.62,.55,3.26,1.07,4.92,1.53,1.66,.45,3.34,.85,5.06,1.14,1.72,.29,3.47,.48,5.26,.51,1.79,.04,3.63-.08,5.52-.41,1.89-.33,3.83-.89,5.83-1.75,2-.87,4.07-2.04,6.2-3.66-1.13,1.87-2.12,3.39-3.03,4.76-.92,1.36-1.76,2.56-2.61,3.71-.85,1.15-1.69,2.24-2.61,3.37s-1.9,2.29-3.03,3.54Z"/>
      <g>
        <path class="cls-13" d="M87.52,4.4V27.09c0,.28-.22,.51-.5,.51h-.01c-.09,0-.18-.02-.25-.08,.15-.09,.25-.25,.25-.44V4.4c0-.19-.1-.35-.25-.44,.07-.06,.16-.08,.25-.08h.01c.28,0,.5,.23,.5,.51Z"/>
        <path class="cls-6" d="M87.01,4.4V27.09c0,.19-.1,.35-.25,.44-.16-.08-.26-.25-.26-.44V4.4c0-.19,.1-.36,.26-.44,.15,.09,.25,.25,.25,.44Z"/>
      </g>
      <path class="cls-7" d="M87.57,26.08h-1.06s-19-5.89-19-5.89V10.66l.08-.02,18.92-4.96h1.02c.06,0,.11,.05,.11,.11s-.05,.11-.11,.11h-1.01l-18.8,4.93v9.2l18.82,5.83h1.01c.06,0,.11,.05,.11,.11s-.05,.11-.11,.11Z"/>
      <path class="cls-7" d="M73.84,15.01h-6.08c-.06,0-.11-.05-.11-.11s.05-.11,.11-.11h6.01l13.64-8.72c.06-.03,.12-.02,.15,.03,.03,.05,.02,.12-.03,.15l-13.7,8.76Z"/>
      <path class="cls-7" d="M87.39,25.39s-.05,0-.07-.02l-13.58-10.37s-.06-.11-.02-.16c.04-.05,.11-.06,.16-.02l13.58,10.37s.06,.11,.02,.16c-.02,.03-.06,.04-.09,.04Z"/>
    </g>
  </g>
</svg>