<?xml version="1.0" encoding="UTF-8"?>
<svg id="Layer_2" data-name="Layer 2" xmlns="http://www.w3.org/2000/svg" viewBox="0 0 32.39 96.05">
  <defs>
    <style>
      .cls-1 {
        opacity: .13;
      }

      .cls-2 {
        fill: #7b0000;
      }

      .cls-3 {
        fill: #fff;
      }

      .cls-4 {
        fill: #f51a07;
      }

      .cls-5 {
        fill: #0c0b0b;
      }

      .cls-6 {
        fill: #0a58a1;
      }

      .cls-7 {
        fill: #343232;
      }
    </style>
  </defs>
  <g id="_Ñëîé_1" data-name="Ñëîé 1">
    <g>
      <polygon class="cls-3" points="5.52 53.44 5.52 96.05 5.67 96.05 15.17 90.52 24.65 96.05 24.8 96.05 24.8 53.44 5.52 53.44"/>
      <path class="cls-4" d="M15.82,42.39h0c.59,0,1.06,.48,1.06,1.06v.73h-2.12v-.73c0-.59,.48-1.06,1.06-1.06Z"/>
      <g>
        <polygon class="cls-7" points="18.07 47.84 18 47.82 18.82 44.71 18.89 44.73 18.07 47.84"/>
        <polygon class="cls-7" points="17.74 47.84 17.67 47.82 18.49 44.71 18.56 44.73 17.74 47.84"/>
        <polygon class="cls-7" points="13.99 48.01 13.07 44.73 13.14 44.71 14.07 47.99 13.99 48.01"/>
        <polygon class="cls-7" points="13.66 48.01 12.74 44.73 12.81 44.71 13.73 47.99 13.66 48.01"/>
      </g>
      <polygon class="cls-7" points="18.32 44.19 18.25 44.18 19.06 37.57 19.14 37.58 18.32 44.19"/>
      <polygon class="cls-7" points="13.33 44.19 12.51 37.58 12.59 37.57 13.4 44.18 13.33 44.19"/>
      <path class="cls-6" d="M27.69,26.12l-3.1,4.72-.77,1.17-3.79,5.77h.48l4.1-5.54,1.12-1.52h0l3.41-4.61C36.95,15.59,29.84,.41,16.74,.01c-.04,0-.08,0-.12,0,.02,0,.04,0,.06,0,11.63,.4,17.94,15.58,11.02,26.11Z"/>
      <path class="cls-6" d="M0,16.94c.1,2.93,1,5.9,2.83,8.62l8.28,12.23h.57l-7.35-12.23c-1.04-1.73-1.74-3.57-2.13-5.43-.2-.96-.33-1.93-.37-2.89-.68-1.83-1.06-3.59-1.25-5.19C.15,13.62-.05,15.28,0,16.94Z"/>
      <path class="cls-6" d="M1.84,17.24c-.22-4.68,1.38-9.28,4.26-12.55C8.51,1.95,11.82,.15,15.73,.01c.06,0,.12,0,.17,0,0,0,.02,0,.03,0-.09,0-.18,0-.26,0-3.6,.11-6.76,1.34-9.28,3.29C3.55,5.5,1.52,8.6,.58,12.05c.19,1.6,.57,3.36,1.25,5.19Z"/>
      <path class="cls-3" d="M25.79,26.12l-2.62,4.78-.41,.74-3.37,6.13h.63l3.79-5.77,.77-1.17,3.1-4.72C34.62,15.59,28.31,.41,16.68,.01c-.02,0-.04,0-.06,0-.02,0-.04,0-.06,0-.01,0-.03,0-.05,0,.03,0,.06,0,.09,0,9.71,.4,14.98,15.58,9.2,26.11Z"/>
      <path class="cls-3" d="M1.84,17.24c.04,.96,.17,1.93,.37,2.89,.39,1.86,1.09,3.69,2.13,5.43l7.35,12.23h.74l-6.13-12.23c-.04-.09-.09-.18-.13-.27-.12-.24-.23-.49-.34-.74-.04-.08-.07-.17-.11-.26-.03-.08-.07-.17-.1-.26-.03-.07-.05-.13-.08-.2h0s-.02-.04-.02-.06c-.03-.09-.06-.17-.1-.26-.16-.43-.3-.86-.42-1.3,0,0,0,0,0-.01-.04-.14-.08-.29-.12-.44-.03-.14-.07-.27-.1-.41,0-.01,0-.02,0-.03-.03-.15-.07-.29-.1-.44-.03-.15-.06-.29-.09-.44-.03-.15-.05-.3-.08-.45-.02-.12-.04-.25-.06-.38-.02-.12-.04-.25-.05-.38,0-.07-.02-.13-.02-.2-.02-.15-.03-.29-.05-.44-.02-.13-.03-.26-.04-.4-.01-.15-.02-.3-.03-.45,0-.15-.02-.3-.02-.45,0-.11,0-.21,0-.31h0c0-.07,0-.14,0-.2,0-.13,0-.25,0-.38,0-1.59,.17-3.15,.5-4.65,.04-.19,.08-.38,.13-.56,.01-.06,.03-.12,.05-.18,.04-.17,.09-.35,.14-.52,.23-.82,.51-1.61,.83-2.36,.68-1.59,1.55-3.04,2.59-4.25,.14-.17,.29-.33,.44-.49,.23-.24,.46-.47,.7-.68,.16-.15,.32-.28,.48-.42,0,0,0,0,0,0,.25-.2,.5-.39,.76-.56,.12-.08,.24-.16,.36-.24,.14-.09,.29-.17,.44-.26,.15-.08,.3-.16,.46-.24,.06-.03,.12-.06,.18-.09,.35-.16,.7-.3,1.06-.42,.07-.02,.14-.05,.2-.06,.53-.16,1.07-.27,1.63-.33,.21-.02,.42-.04,.64-.05,.03,0,.07,0,.1,0-.06,0-.12,0-.17,0-3.9,.13-7.22,1.94-9.63,4.68C3.22,7.96,1.62,12.56,1.84,17.24Z"/>
      <path class="cls-6" d="M23.39,26.12l-1.95,4.75-.08,.2-2.76,6.71h.8l3.37-6.13,.41-.74,2.62-4.78C31.57,15.59,26.3,.41,16.6,.01c-.03,0-.06,0-.09,0-.03,0-.06,0-.09,0h-.05s.09,0,.13,0c7.28,.4,11.22,15.58,6.89,26.11Z"/>
      <path class="cls-6" d="M4.2,16.39c0,.13,0,.26,0,.38,0,.06,0,.13,0,.19h0c0,.11,0,.22,0,.32,0,.15,.01,.3,.02,.45,0,.15,.02,.3,.03,.45,0,.13,.02,.27,.04,.4,.01,.15,.03,.29,.05,.44,0,.07,.01,.13,.02,.2,.01,.13,.03,.26,.05,.38,.02,.13,.04,.25,.06,.38,.02,.15,.05,.3,.08,.45,.03,.15,.06,.3,.09,.44,.03,.15,.06,.3,.1,.44,0,.01,0,.02,0,.03,.03,.14,.07,.27,.1,.41,.04,.15,.08,.29,.12,.44,0,0,0,.01,0,.01,.12,.44,.26,.87,.42,1.3,.03,.09,.06,.17,.1,.26,0,.02,.01,.04,.02,.06h0c.02,.07,.05,.14,.08,.2,.03,.09,.07,.17,.1,.26,.03,.09,.07,.17,.11,.26,.11,.25,.22,.5,.34,.74,.04,.09,.09,.18,.13,.27l6.13,12.23h.94l-4.1-10.92-.49-1.31c-1.16-3.08-1.64-6.51-1.57-9.81C7.39,7.69,10.86,.29,15.9,.01c.05,0,.09,0,.13,0h-.03s-.06,0-.1,0c-.03,0-.06,0-.1,0-.21,0-.43,.02-.64,.05-.56,.06-1.1,.17-1.63,.33-.07,.02-.14,.04-.2,.06-.36,.12-.72,.26-1.06,.42-.06,.03-.12,.06-.18,.09-.16,.07-.31,.15-.46,.24-.15,.08-.29,.17-.44,.26-.12,.08-.24,.15-.36,.24-.26,.18-.51,.36-.76,.56,0,0,0,0,0,0-.16,.14-.32,.27-.48,.42-.24,.21-.47,.44-.7,.68-.15,.16-.3,.32-.44,.49-1.04,1.21-1.91,2.65-2.59,4.25-.32,.76-.6,1.55-.83,2.36-.05,.17-.1,.35-.14,.52-.02,.06-.03,.12-.05,.18-.04,.18-.09,.37-.13,.56-.32,1.5-.5,3.07-.5,4.65Z"/>
      <path class="cls-3" d="M20.48,26.12l-.98,4.02-.13,.53-1.74,7.11h.97l2.76-6.71,.08-.2,1.95-4.75C27.72,15.59,23.77,.41,16.5,.01c-.04,0-.08,0-.13,0h-.08s.06,0,.09,0c4.33,.4,6.68,15.58,4.1,26.11Z"/>
      <path class="cls-3" d="M8.78,25.56l.49,1.31,4.1,10.92h1.14l-2.04-9.12-.69-3.1c-.17-.77-.32-1.56-.44-2.36C9.76,12.92,12.1,.38,16.02,.01c.03,0,.06,0,.09,0h-.07s-.09,0-.13,0C10.86,.29,7.39,7.69,7.21,15.75c-.07,3.31,.41,6.73,1.57,9.81Z"/>
      <path class="cls-6" d="M16.2,0s.04,0,.06,.01c1.5,.4,2.32,15.58,1.42,26.11l-.23,2.75-.12,1.42-.64,7.48h.93l1.74-7.11,.13-.53,.98-4.02C23.06,15.59,20.71,.41,16.38,.01c-.03,0-.06,0-.09,0-.03,0-.06,0-.09,0Z"/>
      <path class="cls-6" d="M11.34,23.2c.12,.8,.27,1.59,.44,2.36l.69,3.1,2.04,9.12h1.1l-.63-8.13-.22-2.87-.09-1.22c-.82-10.6,0-25.16,1.47-25.55,.02,0,.04-.01,.06-.01-.03,0-.06,0-.08,0-.03,0-.06,0-.09,0-3.92,.36-6.26,12.91-4.68,23.19Z"/>
      <path class="cls-3" d="M14.66,25.56l.09,1.22,.22,2.87,.63,8.13h1.08l.64-7.48,.12-1.42,.23-2.75C18.58,15.59,17.76,.41,16.26,.01c-.02,0-.04-.01-.06-.01h0s-.04,0-.06,.01c-1.47,.39-2.29,14.95-1.47,25.55Z"/>
      <path class="cls-1" d="M0,16.94c.1,2.93,1,5.9,2.83,8.62l8.28,12.23h9.39l4.1-5.54c-.26-.07-.53-.15-.79-.23-.35-.11-.71-.23-1.06-.36-.48-.17-.95-.37-1.41-.58-.63-.28-1.25-.59-1.86-.93-.7-.39-1.38-.81-2.04-1.26-.94-.64-1.84-1.35-2.69-2.09-1.26-1.11-2.41-2.32-3.42-3.58-.7-.87-1.33-1.77-1.88-2.68-.97-1.59-1.7-3.2-2.24-4.77-.97-2.81-1.33-5.48-1.37-7.65-.01-.92,.03-1.75,.11-2.45,.04-.33,.08-.64,.14-.95,.09-.49,.19-.96,.3-1.39C3.55,5.5,1.52,8.6,.58,12.05,.15,13.62-.05,15.28,0,16.94Z"/>
      <path class="cls-2" d="M13.51,47.96v1.4c0,.91,.74,1.65,1.65,1.65h1.3c.44,0,.84-.17,1.14-.46h-.67c-.64,0-1.22-.26-1.64-.68s-.68-1-.68-1.64c0-.2,.02-.39,.07-.58h-.86c-.17,0-.31,.14-.31,.3Z"/>
      <path class="cls-7" d="M18.67,44.26h-5.71v-.03s-1.89-6.48-1.89-6.48h9.49v.05s-1.89,6.46-1.89,6.46Zm-5.65-.08h5.59l1.85-6.36H11.17l1.85,6.36Z"/>
      <path class="cls-2" d="M12.45,44.82h6.74c.21,0,.38-.17,.38-.38h0c0-.21-.17-.38-.38-.38h-6.74c-.21,0-.38,.17-.38,.38h0c0,.21,.17,.38,.38,.38Z"/>
      <path class="cls-4" d="M14.61,48.23c0,.64,.26,1.22,.68,1.64s1,.68,1.64,.68h.67c.32-.3,.51-.73,.51-1.2v-1.4c0-.17-.14-.3-.31-.3h-3.12c-.05,.18-.07,.38-.07,.58Z"/>
      <path class="cls-3" d="M17.22,44.43h2.02c.08,0,.14-.06,.14-.14h0c0-.08-.06-.14-.14-.14h-2.02c-.08,0-.14,.06-.14,.14h0c0,.08,.06,.14,.14,.14Z"/>
      <path class="cls-3" d="M16.04,42.91c.15,.06,.3,.02,.34-.09,.04-.11-.04-.24-.19-.3s-.3-.02-.34,.09c-.04,.11,.04,.24,.19,.3Z"/>
      <path class="cls-3" d="M17.73,49.25h0c.08,0,.15-.07,.15-.15v-1.08c0-.08-.07-.15-.15-.15h0c-.08,0-.15,.07-.15,.15v1.08c0,.08,.07,.15,.15,.15Z"/>
      <path class="cls-3" d="M17.29,48.1h.03c.08,0,.14-.06,.14-.14h0c0-.08-.06-.14-.14-.14h-.03c-.08,0-.14,.06-.14,.14h0c0,.08,.06,.14,.14,.14Z"/>
      <path class="cls-7" d="M13.22,49.64s0,.04,0,.06h5.09s0-.04,0-.06c0-.16-.13-.28-.28-.28h-4.53c-.15,0-.28,.13-.28,.28Z"/>
      <path class="cls-5" d="M13.22,49.7c.03,.13,.14,.22,.28,.22h4.53c.13,0,.25-.1,.28-.22h-5.09Z"/>
      <path class="cls-7" d="M18.08,53.34s-.03,0-.03-.02l-1.45-3.38-.83,3.36s-.02,.03-.04,.03h0s-.03-.01-.04-.03l-.8-3.31-1.44,3.29s-.03,.02-.04,.02c-.02,0-.03-.02-.03-.04v-3.32s-2.38,3.31-2.38,3.31c-.01,.02-.04,.02-.05,0-.02-.01-.02-.04,0-.05l2.45-3.4s.03-.02,.04-.01c.02,0,.03,.02,.03,.04v3.26s1.41-3.23,1.41-3.23c0-.01,.02-.02,.04-.02,.02,0,.03,.01,.03,.03l.79,3.27,.82-3.32s.02-.03,.03-.03c.02,0,.03,0,.04,.02l1.43,3.31v-3.32s.01-.03,.03-.04c.01,0,.03,0,.04,.01l2.38,3.48s0,.04,0,.05c-.02,.01-.04,0-.05,0l-2.32-3.38v3.38s-.01,.03-.03,.04c0,0,0,0,0,0Z"/>
      <rect class="cls-5" x="5.2" y="53.21" width="20.16" height=".43" rx=".16" ry=".16"/>
    </g>
  </g>
</svg>