<?xml version="1.0" encoding="UTF-8"?>
<svg id="Layer_2" data-name="Layer 2" xmlns="http://www.w3.org/2000/svg" viewBox="0 0 323.27 323.27">
  <defs>
    <style>
      .cls-1 {
        fill: #fff;
      }

      .cls-2 {
        fill: #cee7e1;
      }

      .cls-3 {
        fill: #ebf5f3;
      }

      .cls-4 {
        fill: #d8e5e1;
      }
    </style>
  </defs>
  <g id="moon">
    <circle class="cls-1" cx="161.63" cy="161.63" r="161.63"/>
    <path class="cls-3" d="M246.29,48.16c-.47-.89-1.85-1.29-2.7-.71-6.26,4.3-17.07,5.96-19.45-3.15-.29-1.1-1.39-1.57-2.43-1.38-1.81,.33-3.08,1.62-4.68,1.96-1.98,.03-3.96,.05-5.94,.08-.55-.76-1.22-1.41-2.02-1.95-2.77-.86-4.62-1.82-7.69-1.06-6.19,1.53-13.13,7.92-7.46,13.51,.56,.56,1.7,.83,2.39,.31,2.14-2.08,4.71-3.12,7.7-3.18,0,.18,.02,.35,.02,.53-.02,.23-.05,.49-.1,.81-.06,.37,.14,.73,.36,1.09,.2,.99,.3,1.96,.3,2.92-.54,3.32-2.18,6-4.77,7.68,.19-.74,.38-1.48,.57-2.22,.28-1.09-.36-2.06-1.38-2.43-3.02-1.1-6.17-2.21-9.37-2.75-1.78-1.33-3.95-1.67-6.81-.07-.05,0-.1,0-.15,.02-2.32,.44-4.68,2-7.05,3.3-.85-.44-1.72-.72-2.61-.84,.43-.92,.86-1.83,1.29-2.75,.49-1.05,.21-2.01-.71-2.7-2.56-1.92-4.85-2.43-8.05-1.7-1.42,.32-2.75,1.04-4.01,1.73-4.4,2.39-7.61,3.3-12.4,2.98-.98-.16-1.98-.27-2.96-.31-.2-.03-.37-.04-.57-.07-3.2-.5-6.58-1.23-8.4,1.08-.87-1.02-1.53-2.19-1.91-3.54-.33-.77-1.47-1.14-2.23-.91-7.78,2.36-11.91,3.85-8.93,12.38,.44,1.25,2.3,2.13,3.3,.87,6.81,3.21,8.38,6.62,4.71,10.24-1.22,1.55-2.34,3.16-3.38,4.83-.62,1.19-1.71,3-1.57,4.55,.43,4.73,9.52,7.25,6.48,13.38-.4,.8-.33,1.73,.31,2.39,4.26,4.37,10.66,4.17,14.43,0,1.68,2.89,2.5,5.83,2.56,9.58,.02,.96,.9,2.11,1.97,1.97,2.39-.31,4.78-.62,7.16-.93,4.06,1.02,7.96,2.99,8.84,7.44,2.06,2.65,1.45,4.58-1.85,5.8l-5.98,5.14c-.72,.62-.64,1.62-.31,2.39,2.29,5.32,8.07,3.25,7.08,10.63-.73,5.46-3.18,5.88-7.75,6.85-1.96,.42-3.56,1.17-5.08,2.1-.16-2.04-.47-4.09-.88-6.11-.3-8.19-1.72-17.58-10.8-13.88-1.06,.43-1.73,1.62-2.67,2.09-.17,.08-.27,.29-.36,.53-1.43,.27-2.75,.85-3.87,1.78-2.4,.13-4.8,.25-7.2,.38,.23-.76,.46-1.51,.69-2.27-1.26-2.8-.18-4.78-3.89-5.59-.91-.2-1.72,.15-2.23,.91-1.36,.83-2.72,1.66-4.07,2.49-.03-5.43-.31-10.46-1.39-13.24-.51-1.72-1.22-3.22-2.29-4.24-1.48-1.41-3.61-1.94-5.96-1.96-3.67-.77-7.64,.07-10.97,2.35-.13,.05-.28,.1-.41,.15-2.29-4.33-3.74-8.63-4.39-13.66-.18-1.42-1.55-2.54-2.97-1.7-2.27,1.35-20.99,13.75-22.35,9.06-.73-2.51-4.16-1.4-3.81,1.05,1.92,5.31,0,9.33-5.73,12.04,.22-.99,.44-1.98,.66-2.97,.4-2.88,1.53-6.08,2.4-8.85,2.06-6.57,4.74-12.98,8.4-18.83,3.68-5.89,8.19-10.06,13.25-14.59,3.88-3.47,8.7-13.33,14.16-12.73,1.41,.16,2.08-1.38,1.9-2.5-.35-1.67-.37-3.25-.24-4.79,3.34-2.99,2.77-9.77,8.06-10.95,2.32-.52,1.56-3.68-.52-3.88-1.75-1.03-2.56-2.52-2.43-4.46-.19-1.22-1.93-1.85-2.9-1.18-3.76,2.58-8.25,.41-12.07,2.29-2.95,1.45-5.98,5.26-7.86,7.83-6.32,8.63-1.2,18.2-6.91,26.91-8.04,12.27-17.45,23.74-26.6,35.19-2.03,2.54-3.31,5.12-4.21,7.75-.87-.11-1.77,.29-2.02,1.39-1.37,5.96-1.5,11.41-.53,17.4,0,0,0,.01,0,.02,0,0,0,0,0,0,.03,.18,.04,.35,.07,.53,0,.04,.03,.06,.03,.09-4.24,6.49-6.21,15.72-8.23,22.02-1.69,5.27-1.33,11.51-3.01,16.51-2.03,6.02-3.02,7.43-3.69,6.84,0-.12-.03-.24-.03-.36-.03-1.1-.47-1.92-1.07-2.54-.42-1.6-.93-3.42-1.84-4.32-2.99-2.98-6.57-2.25-7.75,1.5-.56,1.78,1.68,8,1.97,10.1,.61,4.48,.84,8.98,1.25,13.48,.54,5.85,1.2,11.67,2.9,17.32,3.46,11.48,9.77,22.32,15.94,32.52,3.08,5.08,6.42,9.95,10.57,14.23,4.24,4.37,7.36,10.01,11.62,14.07,3.29,3.14,8.97,5.52,12.76,8.51,3.24,2.55,6.81,4.63,10.61,6.24,1.32,.56,2.66,1.05,4,1.48,.07,1.16,.97,2.24,2.35,1.71,4.7-1.78,11.47,4.5,16.54,4.92,4.77,.4,9.27-1.37,14.15,.88,2.63,1.21,4.77,3.25,7.54,4.28,5.29,1.97,9.86,.98,15.11-.59,4.95-1.48,9.01-2.45,14.25-2.35,4.07,.08,6.49,.67,10.42-.41,1.09-.3,1.58-1.38,1.38-2.43-1.84-9.64,9.35-6.78,12.13-12.2,.94-1.83,.69-3.07,.27-4.98-1.64-7.51-5.21-2-2.27-15.03,.93-4.11,4.21-7.75,1.23-12.01-1.19-1.7-2.67-2.47-4.32-2.68,.82-2.54,1.65-5.08,2.47-7.62,.44-1.34-1.03-2.98-2.43-2.43-1.57-2.05-3.14-4.1-4.71-6.15,.94-1.07,.66-2.93-.87-3.3-5.5-1.33-4.8-3.02-4.53-8.11,.07-1.39-1.78-2.6-2.97-1.7-6.01,4.53-5.5,2.5-6.65-.74-.34-.95-1.36-1.75-2.43-1.38-1.63,.57-3.27,1.14-4.9,1.71,.17-3.1-.54-5.7-2.36-8.88-.62-1.08-2.23-1.32-3.1-.4-3.35-.29-6.7-.58-10.06-.87-.56-.89-1.76-1.28-2.7-.71-2.54-3.01-2.2-6.23,1.02-9.65,1.32-1.83,2.66-3.64,4.04-5.42,1.72-2.53,3.29-5.1,4.55-7.91,1.74-3.87,2.79-7.87,3.44-12,3.03-3.32,5.73-6.81,8.23-10.61,2.48,1.12,5.24,.34,8.33,.76,4.63,.63,7.64,3.92,11.9,4.98-1.62,6.29-3.24,12.58-4.86,18.87-.41,1.59,.98,2.64,2.43,2.43,4.42-.64,6.31-3.42,8.5-7.09,4.22-7.09,10.77-10.33,15.75-16.54,.81-1.01,.76-3.04-.87-3.3-1.43-1.59-2.86-3.19-4.28-4.78,0-1.28-1.26-2.25-2.5-1.9-3.21,.9-7.34,3.55-8.51,.1-.33-.98,1.07-3.54,.8-4.88-.45-2.21-2.29-2.8-3.15-4.58-2.91-6.05,1.68-12.56,5.64-16.9,2.71-2.98,6.47-5.51,6.23-10.04-.14-2.6-.84-3.27-2.44-5.17-.24-.28-.62-.29-.87-.51-3.02-2.67-2-.21-7.42-5.48-5.52-5.37-5.64-7.16-1.3-13.27,1.04-1.46,2.97-4.15,4.68-5.02,1.3-.66,5.95-1.49,6.78,.04,.14,.26-.41,1.75-.32,1.94,1.47,3.13,1.03,6.02,5.27,7.52,1.08,.38,2.1,.51,3.09,.54,5.82,1.35,12.32-5.4,15.41-9.2,1.98-2.42,3.55-5.05,4.79-7.8,1.48-1.54,2.99-2.85,4.57-3.7l1.75,5.85c.44,1.48,2.19,1.85,3.3,.87,1.81-1.6,8.19,2.34,11.12,1.44,3.43-1.04,4.76-5.14,5.6-8.18,.3-1.07-.37-2.09-1.38-2.43-.53-.17-.99-.39-1.41-.62-.37-1.19-1.12-2.31-2.4-3.17-.18-.12-.28-.26-.43-.38-1.26-4.95,3.5-12.27,5.8-15.09,1.51-1.85,2.97-3.31,3.98-5.54,1.67-3.67,1.57-6.56-.28-10.04ZM88.36,244.01c-.18-.07-.36-.11-.56-.12-.14-.02-.26-.07-.4-.08-.06,0-.11,0-.17,0-.15-.05-.29-.09-.44-.14-.06-.02-.09-.06-.15-.08-.15-.04-.32-.08-.5-.12-.7-.23-1.38-.51-2.11-1.01-.65-.45-1.28-.4-1.79-.11-.72-.41-1.2-1-1.1-1.88,.17-1.47,1.13-2.37,.94-4.04-.34-2.96-2.7-5.07-3.87-7.7,.48-.29,.97-.56,1.4-.64,1.08-.22,.02-1.06,1.17,.38,1.19,1.48,1.81,3.46,2.93,5.01,.66,.91,1.33,1.58,2.12,1.97-.24,1.9-.02,3.81,.82,5.62,.36,.77,1.88,2.15,1.99,2.88,.11,.09,.1,.1,.16,.16-.15-.03-.29-.06-.44-.09Zm43.33-5.38c.05,0,.1,0,.16,0,2.07,.15,4.14,.83,6.19,1.7,.15,.13,.31,.21,.46,.36,.51,.51,.48,1.54,1.08,2.05,1.24,1.05,2.22,1.48,3.76,2,1.48,.5,3.07,.66,4.56,1.13,3.3,1.05,6.91,1.37,5.6,5.62-1.35,4.38-8.85,4.86-12.75,2.92-.8-.4-1.58-1.03-2.34-1.76-.04-.3-.12-.57-.26-.8-.16-4.07-3.55-5.78-6.55-8.58-.06-.06-1.17-1.02-2.19-1.91-.26-.62-.55-1.23-.94-1.79-.05-.08-.11-.15-.17-.22,1.13-.24,2.25-.49,3.38-.73Z"/>
    <path class="cls-2" d="M43.07,181.3c-.16-.44-.4-.84-.67-1.2-1.51-3.61-7.81-3.21-7.54,1.36,.09,1.59-.03,3.09-.72,4.56-.76,1.61-.7,3.47,.62,4.78,1.14,1.14,3.4,1.65,4.78,.62,3.16-2.36,4.91-6.21,3.52-10.11Z"/>
    <path class="cls-4" d="M121.45,284.84c-1.77-.26-3.5-.5-5.21-.73-3-1.56-6-3.13-8.99-4.69-.09-.36-.27-.72-.49-1.05,1.1-.42,1.83-1.63,1.11-2.78-3.15-5.06-3.09-7.52,2.96-9.32,1.3-.39,2.08-2.32,.87-3.3-1.52-1.22-3.49-2.32-4.79-3.61,.02-.1,.06-.2,.06-.31,.04-1.86-.07-3.63-.27-5.4,.74-1.91-1.2-4.41,4.77-1.03,1.34,.76,2.54,3.06,3.76,4.1,1.66,1.42,4.23-.35,3.1-2.39-1.53-2.78-3.26-4.82-5.48-6.54,.07-.81-.33-1.61-1.39-1.87l-2.67-.65c-.87-.21-1.62,.2-2.07,.82-2.19-1.06-2.9-4.38-4.39-5.83-.03-.07-.03-.15-.08-.22-1.53-2.51-3.1-3.06-5.92-2.62-.69,.11-1.17,.78-1.38,1.38-.47,1.34-.45,2.21-.22,3.05-.34,.54-.47,1.22-.14,1.94,.87,1.91,1.6,3.81,2.28,5.72-.14,.29-.28,.57-.45,.92-5.17,10.69,.42,.82-3.6,2.9-.7,.36-2.17,1.07-2.88,1.35-.19,.07-.32,.73-.4,1.25-.55-1.17-1.07-2.38-2.05-3.29-.28-.26-.57-.43-.85-.61-.19-.33-.35-.61-.45-.74-.84-1.14-2.29-.99-3.12-.29-2.03-.2-4.2-.4-6.57-3.15-2.07-2.4-2.29-9.12-3.47-11.82-1.52-3.47-2.88-5.87-4.83-7.25,2.48-3.23,5.34-6.15,8.63-8.7,1.55-.09,3.57-1.15,3.81-2.9,.38-2.8,15.25,6.67,17.05,7.17,6.71,1.89,13.27-.52,20.53,1.74,3.75,1.17,6.68-3.92,3.84-6.6-4.4-4.15-8.75-7.04-13.83-9.23-.15-.18-.25-.39-.48-.52-1.05-.6-2.1-1.06-3.17-1.46-.29-2.21,.88-6.38,.75-7.14-.05-.28-.13-.5-.21-.74,2.61-3.22,3.28-7.77,1.08-11.83-.93-1.72-3.73-.94-3.68,1,.08,3.07,.2,6.19-1.98,8.65-.37,.42-.52,.94-.52,1.45-.28,.14-.54,.3-.84,.41-1.07,.37-2.01,1.81-1.18,2.9,.17,.58,.21,1.02,.3,1.51-.64,.68-1.64,.92-2.82,.84-2.06-.96-4.15-1.89-6.3-2.71-.61-.48-1.14-1.02-1.6-1.57-.03-.1-.03-.19-.08-.29-.32-.66-.57-1.27-.78-1.86,1.27-.76,2.31-1.89,2.91-3.41,.24-.62,.36-1.27,.42-1.91,.27,.04,.56,.03,.88-.06,2.02-.61,3.01-1.53,3.66-3.35,2.02-1,3.34-2.71,3.41-5.14,.02-.57-.05-1.13-.14-1.69l-.11-.61c0-.25-.02-.44-.05-.59,.52-.28,1.04-.6,1.48-.99,3.79-3.39,2.79-9.47-1.37-12.02-.6-.37-1.18-.52-1.75-.56,.3-1.14,.48-2.3,.33-3.52-.24-1.95-2.77-4.18-3.18-5.61-.05-.3-.08-.59-.15-.9-.54-2.18-3.86-1.69-3.88,.52,0,.53,.07,.86,.16,1.16,.59,3.08-.04,6.03,.25,9.14,.15,1.68,.85,3.3,.98,4.95,.19,2.53-1.01,6.19-2.19,8.46-.71,1.37-1.42,2.62-1.82,3.84-.14-.08-.26-.18-.4-.26-2.1-1.09-4.06-.16-5.12,1.35,1.54-11.6,1.55-25.2-1-31.83-1.45-3.77-6.13-3.69-7.61,0-1.57,2.14-3.14,4.29-4.71,6.43-1.63-1.87-5.26-1.87-6.37,.59-2.12,4.65-.18,6.17,1.9,7.57,.2,.37,.39,.74,.59,1.11,.53,.99,1.4,1.49,2.34,1.71,.18,.42,.31,.88,.32,1.42,.03,1.63,1.19,3.47,2.9,3.81,.6,.6,1.19,1.2,1.79,1.8-.55,1.52-.1,2.72,.76,3.57-.21,4.28-.29,9.43-2.63,12.78-.03-2.13-.15-4.28-.16-6.38-.01-1.81-2.87-2.88-3.68-1-.56,1.31-.84,2.43-.8,3.86,.01,.37,.17,1.53,.17,2.59-.67-.06-1.37,.15-1.86,.82-.89,1.23-1.87,2.37-2.89,3.47-1.51,.45-3.17,.93-4.65,1.61,0,0,0,0,0,0,.43-.92,.59-1.99,.43-2.9-.82-4.69-.59-4-3.12-8.04-2.07-3.29-7.31-2-7.36,1.99-3.22,2.96-6.43,5.92-9.65,8.88-.43-.58-.74-1.82-1.89-3.74-.71-1.17-2.02-1.99-3.41-1.96-.46,.01-.92,.02-1.39,.03-2.28,.06-4.84,2.53-3.81,5,1.98,4.76-.85,8.18,.76,12.2,.91,2.28,2.59,2.66,3.37,4.18,2.48,4.88,2.45,8.36,6.17,11.12-.86,2.27-1.22,4.64,.04,6.99,2.24,4.2,9.31,3.02,8.9,7.11-.02,.15,0,.29,.01,.43-.56,1-.83,2.23-.56,3.85,.84,4.99,3.87,2.94,6.8,5.17,1.87-.4,3.66,.01,5.38,1.25-.49,.49-.83,1.07-1.02,1.74,.81,1.15-.71,3.82,.53,5.31,2.95,3.52,11.51,8.37,16.11,7.47-2.96,.58-3.74,4.63-1.74,6.6,6.85,6.74,10.31,11.78,19.57,13.72,5.37,1.12,10.88,1.9,16.4,2.62,4.57,2.85,9.38,4.53,16.42,1.39,2.97-1.32,2.33-6.73-.94-7.22Zm-28.75-22.89c-.66-.63-1.06-1.35-1.33-2.12,.56-.46,1.01-1.09,1.51-1.22,.37-.1,.29-1.16,.42-1.2-.21,.05,1.92,1.24,1.96,1.25,.58,.06,1.14,.06,1.7,.08-.07,1.26,.13,2.55,.47,3.9,.27,1.05,.54,2.05,.76,3.01-2.87,.13-4.72-1.08-5.51-3.71Z"/>
    <path class="cls-2" d="M139.02,288.89c-2.18-.99-4.41-1.99-6.25-3.56-.91-.78-1.45-1.54-1.84-2.33-.58-2.09-.96-4.07-1.29-4.83-1.03-2.36-1.93-3.41-4.24-4.35-.55-.22-1.11-.38-1.66-.52-.1-.1-.21-.18-.3-.29-1.26-1.46-1.61-3.77-2.77-5.1-3.82-4.37-12.28-1.73-12.17,4.26,.05,2.54,3.99,2.55,3.95,0,.12-.16,.23-.24,.35-.38,3.04,.58,5.69,3.95,8.44,5.24,.37,.17,.71,.26,1.05,.32,1.43,1.28,2.81,2.41,3.6,4.32,.43,1.03,.9,1.93,1.39,2.77,.11,.66,.23,1.28,.39,1.79,1.6,4.98,6.05,9.23,11.36,6.09,1.18-.7,1.39-2.77,0-3.41Z"/>
  </g>
</svg>