<?xml version="1.0" encoding="UTF-8"?>
<svg id="Layer_2" data-name="Layer 2" xmlns="http://www.w3.org/2000/svg" xmlns:xlink="http://www.w3.org/1999/xlink" viewBox="0 0 1238.57 1545.08">
  <defs>
    <style>
      .cls-1 {
        fill: url(#_Áåçûìÿííûé_ãðàäèåíò_145-8);
      }

      .cls-2 {
        fill: url(#_Áåçûìÿííûé_ãðàäèåíò_145-19);
      }

      .cls-3 {
        fill: url(#_Áåçûìÿííûé_ãðàäèåíò_145);
      }

      .cls-4 {
        fill: url(#_Áåçûìÿííûé_ãðàäèåíò_145-16);
      }

      .cls-5 {
        fill: url(#_Áåçûìÿííûé_ãðàäèåíò_145-18);
      }

      .cls-6 {
        fill: url(#_Áåçûìÿííûé_ãðàäèåíò_145-3);
      }

      .cls-7 {
        fill: url(#_Áåçûìÿííûé_ãðàäèåíò_145-6);
      }

      .cls-8 {
        fill: url(#_Áåçûìÿííûé_ãðàäèåíò_145-9);
      }

      .cls-9 {
        fill: url(#_Áåçûìÿííûé_ãðàäèåíò_145-5);
      }

      .cls-10 {
        fill: url(#_Áåçûìÿííûé_ãðàäèåíò_145-13);
      }

      .cls-11 {
        fill: url(#_Áåçûìÿííûé_ãðàäèåíò_145-12);
      }

      .cls-12 {
        fill: url(#_Áåçûìÿííûé_ãðàäèåíò_145-11);
      }

      .cls-13 {
        fill: url(#_Áåçûìÿííûé_ãðàäèåíò_145-14);
      }

      .cls-14 {
        fill: url(#_Áåçûìÿííûé_ãðàäèåíò_145-17);
      }

      .cls-15 {
        fill: url(#_Áåçûìÿííûé_ãðàäèåíò_145-15);
      }

      .cls-16 {
        fill: url(#_Áåçûìÿííûé_ãðàäèåíò_145-7);
      }

      .cls-17 {
        fill: url(#_Áåçûìÿííûé_ãðàäèåíò_145-10);
      }

      .cls-18 {
        fill: url(#_Áåçûìÿííûé_ãðàäèåíò_145-4);
      }

      .cls-19 {
        fill: url(#_Áåçûìÿííûé_ãðàäèåíò_145-21);
      }

      .cls-20 {
        fill: url(#_Áåçûìÿííûé_ãðàäèåíò_145-22);
      }

      .cls-21 {
        fill: url(#_Áåçûìÿííûé_ãðàäèåíò_145-20);
      }

      .cls-22 {
        fill: url(#_Áåçûìÿííûé_ãðàäèåíò_145-2);
      }
    </style>
    <linearGradient id="_Áåçûìÿííûé_ãðàäèåíò_145" data-name="Áåçûìÿííûé ãðàäèåíò 145" x1="191.92" y1="1660.26" x2="191.92" y2="-48.33" gradientUnits="userSpaceOnUse">
      <stop offset=".11" stop-color="#ff55d9"/>
      <stop offset=".5" stop-color="#340094"/>
      <stop offset=".89" stop-color="#6800d4"/>
    </linearGradient>
    <linearGradient id="_Áåçûìÿííûé_ãðàäèåíò_145-2" data-name="Áåçûìÿííûé ãðàäèåíò 145" x1="257.22" y1="1660.26" x2="257.22" y2="-48.33" xlink:href="#_Áåçûìÿííûé_ãðàäèåíò_145"/>
    <linearGradient id="_Áåçûìÿííûé_ãðàäèåíò_145-3" data-name="Áåçûìÿííûé ãðàäèåíò 145" x1="189.97" y1="1660.26" x2="189.97" y2="-48.33" xlink:href="#_Áåçûìÿííûé_ãðàäèåíò_145"/>
    <linearGradient id="_Áåçûìÿííûé_ãðàäèåíò_145-4" data-name="Áåçûìÿííûé ãðàäèåíò 145" x1="314.1" y1="1660.26" x2="314.1" y2="-48.32" xlink:href="#_Áåçûìÿííûé_ãðàäèåíò_145"/>
    <linearGradient id="_Áåçûìÿííûé_ãðàäèåíò_145-5" data-name="Áåçûìÿííûé ãðàäèåíò 145" x1="530.72" y1="1660.26" x2="530.72" y2="-48.33" xlink:href="#_Áåçûìÿííûé_ãðàäèåíò_145"/>
    <linearGradient id="_Áåçûìÿííûé_ãðàäèåíò_145-6" data-name="Áåçûìÿííûé ãðàäèåíò 145" x1="423.45" y1="1660.26" x2="423.45" y2="-48.33" xlink:href="#_Áåçûìÿííûé_ãðàäèåíò_145"/>
    <linearGradient id="_Áåçûìÿííûé_ãðàäèåíò_145-7" data-name="Áåçûìÿííûé ãðàäèåíò 145" x1="499.1" y1="1660.26" x2="499.1" y2="-48.33" xlink:href="#_Áåçûìÿííûé_ãðàäèåíò_145"/>
    <linearGradient id="_Áåçûìÿííûé_ãðàäèåíò_145-8" data-name="Áåçûìÿííûé ãðàäèåíò 145" x1="548.82" y1="1660.26" x2="548.82" y2="-48.33" xlink:href="#_Áåçûìÿííûé_ãðàäèåíò_145"/>
    <linearGradient id="_Áåçûìÿííûé_ãðàäèåíò_145-9" data-name="Áåçûìÿííûé ãðàäèåíò 145" x1="353.17" y1="1660.26" x2="353.17" y2="-48.33" xlink:href="#_Áåçûìÿííûé_ãðàäèåíò_145"/>
    <linearGradient id="_Áåçûìÿííûé_ãðàäèåíò_145-10" data-name="Áåçûìÿííûé ãðàäèåíò 145" x1="365.03" y1="1660.26" x2="365.03" y2="-48.33" gradientTransform="translate(599.58 -59.77) rotate(49.23)" xlink:href="#_Áåçûìÿííûé_ãðàäèåíò_145"/>
    <linearGradient id="_Áåçûìÿííûé_ãðàäèåíò_145-11" data-name="Áåçûìÿííûé ãðàäèåíò 145" x1="452.29" y1="1660.26" x2="452.29" y2="-48.33" xlink:href="#_Áåçûìÿííûé_ãðàäèåíò_145"/>
    <linearGradient id="_Áåçûìÿííûé_ãðàäèåíò_145-12" data-name="Áåçûìÿííûé ãðàäèåíò 145" x1="758.65" y1="1272.02" x2="1201.59" y2="-74.64" xlink:href="#_Áåçûìÿííûé_ãðàäèåíò_145"/>
    <linearGradient id="_Áåçûìÿííûé_ãðàäèåíò_145-13" data-name="Áåçûìÿííûé ãðàäèåíò 145" x1="712.01" y1="1256.68" x2="1154.96" y2="-89.98" xlink:href="#_Áåçûìÿííûé_ãðàäèåíò_145"/>
    <linearGradient id="_Áåçûìÿííûé_ãðàäèåíò_145-14" data-name="Áåçûìÿííûé ãðàäèåíò 145" x1="727.94" y1="1261.92" x2="1170.89" y2="-84.74" xlink:href="#_Áåçûìÿííûé_ãðàäèåíò_145"/>
    <linearGradient id="_Áåçûìÿííûé_ãðàäèåíò_145-15" data-name="Áåçûìÿííûé ãðàäèåíò 145" x1="650.55" y1="1236.46" x2="1093.5" y2="-110.2" xlink:href="#_Áåçûìÿííûé_ãðàäèåíò_145"/>
    <linearGradient id="_Áåçûìÿííûé_ãðàäèåíò_145-16" data-name="Áåçûìÿííûé ãðàäèåíò 145" x1="417.97" y1="1159.96" x2="860.92" y2="-186.7" xlink:href="#_Áåçûìÿííûé_ãðàäèåíò_145"/>
    <linearGradient id="_Áåçûìÿííûé_ãðàäèåíò_145-17" data-name="Áåçûìÿííûé ãðàäèåíò 145" x1="531.69" y1="1197.37" x2="974.64" y2="-149.3" xlink:href="#_Áåçûìÿííûé_ãðàäèåíò_145"/>
    <linearGradient id="_Áåçûìÿííûé_ãðàäèåíò_145-18" data-name="Áåçûìÿííûé ãðàäèåíò 145" x1="380.89" y1="1147.76" x2="823.84" y2="-198.89" xlink:href="#_Áåçûìÿííûé_ãðàäèåíò_145"/>
    <linearGradient id="_Áåçûìÿííûé_ãðàäèåíò_145-19" data-name="Áåçûìÿííûé ãðàäèåíò 145" x1="365.74" y1="1142.78" x2="808.69" y2="-203.88" xlink:href="#_Áåçûìÿííûé_ãðàäèåíò_145"/>
    <linearGradient id="_Áåçûìÿííûé_ãðàäèåíò_145-20" data-name="Áåçûìÿííûé ãðàäèåíò 145" x1="501.7" y1="1187.5" x2="944.64" y2="-159.16" xlink:href="#_Áåçûìÿííûé_ãðàäèåíò_145"/>
    <linearGradient id="_Áåçûìÿííûé_ãðàäèåíò_145-21" data-name="Áåçûìÿííûé ãðàäèåíò 145" x1="524.38" y1="1573.05" x2="1147.04" y2="-319.97" xlink:href="#_Áåçûìÿííûé_ãðàäèåíò_145"/>
    <linearGradient id="_Áåçûìÿííûé_ãðàäèåíò_145-22" data-name="Áåçûìÿííûé ãðàäèåíò 145" x1="560.74" y1="1206.92" x2="1003.68" y2="-139.73" gradientTransform="translate(604.13 -503.72) rotate(50.87)" xlink:href="#_Áåçûìÿííûé_ãðàäèåíò_145"/>
  </defs>
  <g id="_Ñëîé_1" data-name="Ñëîé 1">
    <g>
      <g>
        <path class="cls-3" d="M301.59,653.43c3.92-6.59,9.1-12.44,15.36-17.18-10.06,2.17-17.55,9.66-25.51,15.49-4.1,3.25-8.33,6.05-12.61,8.74l9.19-29.32c-22.77,20.49-37.78,34.17-47.66,43.29l2.85-14.34c-21.1,11.21-34.16,21.13-42.21,28.84-1.66-9,1.33-18.21,10.29-35.99-14.25,13.87-17.77,14.33-26.75,38.21-.48-9.75,1.52-19.76,6.04-29.7-19.34,12.75-35.25,28.98-44.55,47.33,4.46-31.96-27.97,7.73-44.24,15.74,2.02-2.94,4.18-5.79,6.47-8.55-11.4,4.33-22.68,10.79-33.16,19.3,7.92-16.04,20.19-31.37,29.73-44.76-21.83,10.44-42.83,29.63-57.45,56.44h-.05c1.1-17.22,5.26-34.24,12.35-50.06-18.25,13.99-34.56,35.25-45.09,62.12l-1.44,.53c1.91-6.76,4.31-13.39,7.19-19.83-7.16,5.49-14.01,12.08-20.34,19.7,24.86-72.9,83.79-133.49,156.11-160.1,74.18-27.3,160.8-18.23,227.73,23.84l-82.25,30.27Z"/>
        <path class="cls-22" d="M331.98,679.55c-.3-7.63,.86-15.33,3.51-22.65-7.22,7.2-9.4,17.5-12.89,26.66-1.66,4.92-3.67,9.54-5.78,14.09l-5.43-22.12c-7.9,29.39-15.78,41.48-19.09,54.43l-5.38-13.59c-11.53,20.7-17.05,36.02-19.59,46.8-6.26-6.68-8.74-16.02-10.9-35.76-4.37,19.28-7.06,21.55-1.63,46.42-5.68-7.94-9.43-17.42-11.03-28.2-9.23,21.06-13.71,43.21-11.54,63.61-13.57-29.26-19.14,21.45-28.38,36.88,.1-3.55,.35-7.1,.77-10.65-7.16,9.74-13.07,21.19-17.21,33.95-2.07-17.72-.14-37.17,.57-53.52-12.55,20.45-19.68,47.8-17.37,78.16l-.04,.04c-8.4-15.08-14.14-31.61-16.79-48.7-7.65,21.51-9.75,48.11-3.98,76.33l-.92,1.21c-2.07-6.7-3.66-13.57-4.73-20.51-3,8.44-5.14,17.64-6.3,27.43-18.71-74.58-2.36-157.02,43.55-218.05,47.09-62.59,124.23-101.26,202.79-101.65l-52.21,69.4Z"/>
        <path class="cls-6" d="M292.13,615.02c6.74-3.14,13.97-4.98,21.33-5.34-8.6-3.82-18.48-1.93-27.71-1.64-4.9,.35-9.64,.27-14.34,.06l24.01-18.53c-28.67,3.9-47.68,6.62-60.26,8.5l10.55-9.98c-21.97-2.65-37.34-1.89-47.74-.13,4.11-8.17,11.73-13.93,28.75-23.3-18.56,3.29-21.4,1.71-42.04,15.98,5.41-8.13,12.78-15.08,21.95-20.58-21.61-.43-42.77,3.84-60.38,13.48,22.14-23.28-24.92-9.26-41.48-11.81,3.21-1.25,6.46-2.35,9.76-3.31-10.85-2.82-22.88-3.86-35.53-2.81,15.24-8.54,33.23-14.1,48.08-19.61-22.05-3.67-48.67,.17-75.15,13.67l-.05-.02c10.98-13.27,24.07-24.68,38.58-33.5-21.54,1.16-45.97,9.27-69.51,25.09l-1.36-.38c5.38-4.39,11.05-8.41,16.95-12-8.45,.46-17.33,1.98-26.44,4.61,61.17-44.97,139.84-61.17,208.18-42.57,70.09,19.07,127.75,74.32,151.57,145.26l-77.72-21.14Z"/>
        <path class="cls-18" d="M368.17,699.91c-3.03-5.96-5.07-12.45-5.98-19.23-3.07,9.82-.23,20.03,.91,29.83,.36,2.24,.63,4.46,.83,6.68l-17.98-19.23,13.02,56.02-20.67-22.09,13.77,59.2c-10.83-10.98-20.7-23.01-29.05-35.48,4.08,15.5,13.12,34.47,27.09,54.6l-.06,.35-19.64-13.27,7.95,34.21c-9.63-7.47-18.15-16.41-25.19-26.58,1.89,20.71,9.84,42.75,24.34,62.74-16.7-14.32-31.96-31.43-44.01-49.44,5.46,20.75,19.81,47.72,42.95,75.34l-.03,.17c-17.46-16.59-34.96-35.45-50.06-53.93,9.41,15.92,29.15,54.89,41.16,97.14-30.94-26.65-30.12-39.1-34.41-56.05-1.59,23.11,16.65,61.3,31.29,86.26l-.17,1.06c-14.46-9.44-27.22-21.44-37.5-35.41,3.19,22.77,30.39,78.78,30.39,78.78-4.58-4.71-8.84-9.73-12.74-15.03,.63,4.47,1.53,9.01,2.73,13.6-47.98-57.15-69.9-135.62-57.83-209.33,12.77-78.01,63.32-148.93,132.88-186.47l-14,85.54Z"/>
        <path class="cls-9" d="M425.34,664.83c-3.24-6.94-7.83-13.28-13.58-18.62,9.8,3.15,16.5,11.35,23.85,17.94,3.76,3.64,7.69,6.85,11.68,9.95l-6.25-30.08c20.63,22.64,34.21,37.75,43.14,47.8l-1.42-14.56c19.88,13.24,31.9,24.41,39.14,32.87,2.55-8.79,.48-18.25-6.67-36.83,12.8,15.21,16.26,16.02,22.83,40.67,1.45-9.66,.45-19.81-3.07-30.15,17.99,14.6,32.21,32.33,39.64,51.51-1.28-32.24,27.07,10.46,42.47,20.04-1.72-3.12-3.59-6.18-5.59-9.15,10.91,5.44,21.5,12.98,31.09,22.49-6.3-16.75-16.99-33.22-25.15-47.48,20.69,12.55,39.68,33.73,51.58,61.85l.05,.02c.61-17.25-1.84-34.6-7.33-51.05,16.78,15.73,30.9,38.5,38.71,66.28l1.38,.67c-1.23-6.92-2.96-13.76-5.19-20.44,6.58,6.17,12.74,13.41,18.29,21.62-17.52-75-70.15-141.13-139.49-174.77-71.11-34.51-158.21-34.07-228.97,1.17l78.85,38.26Z"/>
        <path class="cls-7" d="M350.19,686.1c.55-7.64-.36-15.41-2.78-22.88,7.02,7.53,8.87,17.96,12.08,27.29,1.5,5.01,3.37,9.73,5.35,14.38l9.21-29.31c6.97,29.82,11.47,49.64,14.36,62.77l5.86-13.4c10.9,21.26,15.95,36.86,18.15,47.79,6.51-6.44,9.32-15.7,12.13-35.41,3.76,19.52,6.39,21.92,.11,46.64,5.97-7.73,10.05-17.08,12.02-27.82,8.58,21.52,12.36,43.93,9.5,64.3,14.6-28.77,18.53,22.33,27.31,38.2,.02-3.57-.12-7.14-.42-10.71,6.87,10.07,12.44,21.82,16.18,34.79,2.67-17.69,1.37-37.29,1.19-53.72,11.94,21.05,18.2,48.8,14.88,79.15l.04,.04c8.94-14.77,15.26-31.11,18.49-48.15,6.98,21.91,8.21,48.68,1.49,76.75l.88,1.26c2.3-6.64,4.12-13.45,5.43-20.38,2.74,8.59,4.59,17.92,5.43,27.79,21.27-74.02,7.55-157.42-36.58-220.6-45.26-64.8-121.52-106.88-200.48-110.61l50.19,71.85Z"/>
        <path class="cls-16" d="M424.04,577.64c-6.55,1.34-12.9,3.77-18.77,7.28,5.78-8.51,15.53-12.64,23.92-17.85,1.98-1.11,3.88-2.29,5.75-3.5l-26.24-2.12,51.96-24.66-30.15-2.43,54.91-26.06c-15.33-1.65-30.9-1.89-45.85-.66,14.68-6.45,35.15-11.18,59.6-12.77l.23-.26-22.61-7.12,31.73-15.06c-11.84-2.89-24.14-3.99-36.48-3.18,17.39-11.4,39.59-18.9,64.26-19.98-21.6-4.16-44.49-5.46-66.09-3.69,19.64-8.63,49.68-14.18,85.71-13.25l.11-.13c-23.85-3.34-49.5-5.31-73.37-5.63,18.31-2.54,61.1-11.33,101.65-28.22-40.11-7.64-49.35,.75-65.29,7.93,17.11-15.62,58.35-25.1,87-29.17l.72-.79c-16.38-5.45-33.72-7.97-51.05-7.33,19.82-11.67,80.59-25.22,80.59-25.22-6.53-.66-13.12-.87-19.69-.62,3.89-2.29,8.01-4.41,12.34-6.32-74.6-2-149.66,29.66-199.86,84.97-53.12,58.54-77.2,142.23-63.3,220.05l58.26-64.19Z"/>
        <path class="cls-1" d="M435.99,607.86c-5.45-3.86-11.54-6.86-18.06-8.79,9.98-1.44,19.61,2.9,29.05,5.54,2.15,.7,4.29,1.3,6.43,1.85l-16.58-20.42,53.17,21.36-19.05-23.46,56.18,22.58c-9.39-12.2-19.94-23.64-31.1-33.67,14.65,6.38,32.08,18.09,50.04,34.76h.34s-10.54-21.1-10.54-21.1l32.46,13.05c-6.12-10.5-13.81-20.14-22.87-28.54,20.01,5.07,40.58,16.2,58.34,33.37-11.93-18.4-26.78-35.86-42.9-50.34,19.61,8.53,44.21,26.63,68.36,53.36h.17c-14.07-19.5-30.34-39.39-46.54-56.9,14.4,11.6,50.06,36.79,89.89,55.03-22.23-34.12-34.51-35.28-50.55-42.08,22.79,2.07,57.88,25.7,80.47,43.77h1.05c-7.44-15.47-17.6-29.71-29.98-41.84,21.87,6.65,73.27,41.73,73.27,41.73-4.03-5.17-8.42-10.08-13.12-14.69,4.3,1.31,8.62,2.89,12.96,4.77-49.95-55.39-123.97-88.86-197.52-88.69-77.85,.19-153.44,38.06-198.73,99.56l85.37-.2Z"/>
        <path class="cls-8" d="M384.72,560.19c-3.75,4.56-6.76,9.74-8.87,15.36-.66-8.91,3.76-17.13,6.66-25.29,.75-1.85,1.41-3.7,2.03-5.55l-19.05,13.27,22.11-45.53-21.89,15.25,23.37-48.12c-11.35,7.48-22.11,16.03-31.65,25.22,6.53-12.52,17.94-27.13,33.76-41.87l.02-.3-19.28,7.9,13.5-27.8c-9.65,4.7-18.63,10.85-26.61,18.29,5.7-17.34,16.79-34.76,33.04-49.3-16.99,9.31-33.32,21.26-47.1,34.53,8.73-16.75,26.23-37.27,51.32-56.81v-.15c-18.08,11.12-36.65,24.16-53.1,37.3,11.12-11.94,35.56-41.76,54.1-75.72-31.51,17.35-33.27,28.12-40.26,41.83,3.22-19.99,26.23-49.4,43.58-68.15l.06-.93c-14.13,5.54-27.33,13.55-38.8,23.68,7.21-18.88,41.34-61.93,41.34-61.93-4.81,3.22-9.42,6.76-13.78,10.61,1.42-3.71,3.08-7.42,5-11.12-51.99,40.41-86.08,103.55-90.4,168.54-4.57,68.78,24.29,138.09,75.88,182.22l5.02-75.42Z"/>
        <circle class="cls-17" cx="365.03" cy="624.54" r="28.46" transform="translate(-346.32 493.09) rotate(-49.23)"/>
        <path class="cls-12" d="M353.51,611.11c84.63,190.83,177.21,550.84,156.85,933.96h40.72c0-408.58-89.93-736.03-173.01-917.66-8.19-5.44-16.37-10.87-24.56-16.31Z"/>
      </g>
      <g>
        <path class="cls-11" d="M902.21,417.72c-4.21-7.53-9.88-14.28-16.78-19.8,11.26,2.74,19.47,11.41,28.26,18.2,4.52,3.78,9.19,7.07,13.93,10.22l-9.47-33.28c25.02,23.74,41.51,39.61,52.36,50.17l-2.78-16.23c23.42,13.25,37.82,24.81,46.65,33.73,2.14-10.08-.95-20.54-10.5-40.82,15.62,16.04,19.57,16.67,28.97,43.81,.84-10.97-1.12-22.29-5.91-33.61,21.4,14.93,38.82,33.68,48.74,54.62-4.07-36.11,31.26,9.54,49.34,19.04-2.19-3.37-4.53-6.64-7.03-9.82,12.7,5.22,25.21,12.83,36.76,22.72-8.44-18.3-21.79-35.93-32.13-51.28,24.26,12.41,47.33,34.64,62.99,65.26h.06c-.73-19.41-4.9-38.7-12.41-56.73,20.13,16.29,37.85,40.72,48.9,71.29l1.61,.64c-1.94-7.67-4.45-15.21-7.5-22.54,7.89,6.39,15.41,14.02,22.31,22.79-25.81-82.81-90.33-152.79-170.96-184.92-82.7-32.95-180.49-25.34-257.09,20.02l91.69,36.54Z"/>
        <path class="cls-10" d="M867.21,446.21c.56-8.58-.51-17.28-3.28-25.61,7.91,8.32,10.06,19.99,13.72,30.4,1.72,5.59,3.85,10.85,6.09,16.03l6.77-24.74c8.02,33.33,16.52,47.17,19.86,61.85l6.46-15.13c12.36,23.65,18.12,41.06,20.66,53.28,7.25-7.33,10.32-17.78,13.34-39.93,4.35,21.83,7.31,24.47,.45,52.31,6.63-8.77,11.13-19.33,13.26-31.42,9.76,23.99,14.15,49.05,11.08,71.96,16.15-32.53,20.91,24.72,30.84,42.37,0-4-.18-8.01-.54-12.01,7.77,11.17,14.08,24.25,18.36,38.74,2.86-19.89,1.27-41.84,.96-60.27,13.52,23.39,20.72,54.41,17.21,88.51l.04,.04c9.91-16.72,16.87-35.16,20.36-54.33,7.97,24.45,9.53,54.45,2.2,86.05l1,1.39c2.53-7.48,4.52-15.16,5.94-22.95,3.12,9.59,5.26,20.02,6.27,31.07,23.3-83.4,7.36-176.7-42.5-246.79-51.14-71.88-136.82-117.72-225.27-120.51l56.7,79.7Z"/>
        <path class="cls-13" d="M914.01,374.75c-7.5-3.74-15.58-6.03-23.85-6.65,9.8-4.05,20.86-1.62,31.25-1.02,5.51,.54,10.84,.59,16.14,.5l-26.48-21.58c32.16,5.25,53.48,8.88,67.58,11.37l-11.58-11.55c24.81-2.32,42.09-1.01,53.76,1.28-4.38-9.33-12.79-16.04-31.67-27.09,20.8,4.26,24.04,2.57,46.85,19.24-5.85-9.31-13.94-17.36-24.09-23.83,24.34,.16,48.04,5.6,67.57,16.98-24.22-26.87,28.33-9.67,47.06-12.05-3.57-1.5-7.21-2.84-10.89-4.02,12.3-2.85,25.87-3.66,40.08-2.1-16.91-10.07-36.99-16.87-53.54-23.51,24.94-3.47,54.79,1.65,84.19,17.64l.05-.02c-11.97-15.27-26.36-28.51-42.43-38.88,24.22,1.96,51.48,11.81,77.51,30.33l1.54-.38c-5.93-5.11-12.19-9.8-18.72-14.01,9.5,.77,19.45,2.75,29.62,5.98-67.52-52.46-155.6-73.06-233.1-54.17-79.48,19.37-146.05,79.85-174.99,159l88.13-21.48Z"/>
        <path class="cls-15" d="M825.86,468.06c3.59-6.62,6.08-13.86,7.31-21.47,3.16,11.15-.34,22.55-1.92,33.56-.47,2.51-.84,5.01-1.14,7.49l20.82-21.11-16.34,62.68,23.93-24.25-17.27,66.24c12.52-12.03,24-25.29,33.76-39.08-5.06,17.33-15.8,38.42-32.13,60.66l.06,.39,22.51-14.35-9.98,38.27c11.07-8.13,20.92-17.94,29.15-29.16-2.75,23.25-12.36,47.83-29.28,69.91,19.23-15.62,36.92-34.43,51.03-54.34-6.77,23.19-23.73,53.13-50.61,83.54l.03,.19c20.15-18.16,40.42-38.86,57.97-59.22-11.07,17.64-34.46,60.92-49.25,108.13,35.63-29.07,35.08-43.12,40.42-62.07,1.09,26.07-20.58,68.51-37.81,96.18l.16,1.19c16.56-10.19,31.29-23.32,43.28-38.74-4.28,25.54-36.58,87.79-36.58,87.79,5.3-5.16,10.24-10.69,14.8-16.54-.84,5.02-1.99,10.1-3.48,15.22,55.73-62.9,82.75-150.59,71.38-233.93-12.04-88.21-66.82-169.57-144.01-213.91l13.2,96.73Z"/>
        <path class="cls-4" d="M762.55,426.84c3.86-7.72,9.21-14.72,15.85-20.55-11.12,3.26-18.92,12.29-27.39,19.48-4.34,3.99-8.86,7.48-13.45,10.85l7.93-33.68c-23.9,24.87-39.64,41.47-50,52.52l2.04-16.34c-22.78,14.31-36.64,26.52-45.05,35.84-2.6-9.98,0-20.56,8.61-41.26-14.87,16.75-18.79,17.55-26.92,45.1-1.34-10.92,.09-22.32,4.36-33.85-20.69,15.9-37.23,35.43-46.17,56.81,2.4-36.26-30.79,10.97-48.41,21.29,2.03-3.47,4.22-6.85,6.57-10.13-12.45,5.8-24.59,13.97-35.68,24.39,7.59-18.66,20.12-36.89,29.73-52.7-23.67,13.51-45.69,36.78-59.92,68.09l-.06,.02c-.17-19.44,3.11-38.9,9.78-57.25-19.36,17.2-35.94,42.42-45.57,73.46l-1.58,.71c1.59-7.75,3.74-15.4,6.46-22.86-7.59,6.75-14.74,14.72-21.23,23.79,21.97-83.91,83.21-156.79,162.28-192.59,81.09-36.72,179.13-33.62,257.74,8.17l-89.91,40.72Z"/>
        <path class="cls-14" d="M846.51,453.04c-.39-8.62,.86-17.34,3.82-25.67-8.12,8.27-10.53,19.95-14.42,30.36-1.84,5.6-4.09,10.85-6.45,16.03l-9.49-33.27c-8.74,33.37-14.39,55.54-18.05,70.23l-6.19-15.26c-12.91,23.6-19.06,41.02-21.86,53.25-7.14-7.44-10.02-17.95-12.6-40.23-4.82,21.87-7.85,24.48-1.52,52.5-6.49-8.88-10.8-19.53-12.7-31.68-10.31,23.97-15.23,49.09-12.62,72.11-15.58-32.83-21.53,24.59-31.89,42.19,.08-4.02,.35-8.04,.79-12.05-8.04,11.13-14.66,24.19-19.26,38.68-2.47-20-.42-42.02,.26-60.51-14.07,23.34-21.95,54.39-19.12,88.66l-.04,.04c-9.63-16.89-16.25-35.48-19.37-54.76-8.52,24.46-10.7,54.56-3.97,86.36l-1.03,1.39c-2.39-7.54-4.24-15.27-5.51-23.11-3.34,9.59-5.7,20.04-6.94,31.12-21.73-83.98-3.79-177.46,47.79-247.26,52.9-71.6,140.01-116.68,229.02-118.52l-58.65,79.38Z"/>
        <path class="cls-5" d="M766.62,328.72c7.33,1.7,14.41,4.63,20.92,8.76-6.25-9.76-17.11-14.7-26.39-20.81-2.19-1.31-4.3-2.69-6.37-4.12l29.61-1.6-57.76-29.32,34.02-1.84-61.04-30.98c17.31-1.4,34.84-1.2,51.64,.63-16.33-7.7-39.24-13.64-66.72-16.16l-.25-.3,25.67-7.34-35.27-17.9c13.42-2.9,27.3-3.77,41.16-2.49-19.23-13.35-44.01-22.46-71.75-24.42,24.44-4.04,50.25-4.82,74.51-2.18-21.85-10.31-55.51-17.46-96.1-17.49l-.12-.15c26.95-3.05,55.89-4.5,82.76-4.14-20.54-3.4-68.45-14.59-113.6-34.81,45.38-7.4,55.54,2.32,73.27,10.88-18.79-18.1-64.94-30.01-97.07-35.45l-.79-.91c18.61-5.64,38.2-7.97,57.69-6.72-21.96-13.73-89.97-30.81-89.97-30.81,7.37-.54,14.79-.58,22.19-.11-4.31-2.7-8.88-5.2-13.7-7.49,84.04-.02,167.61,37.88,222.46,101.65,58.05,67.49,82.65,162.44,64.68,249.63l-63.66-74.01Z"/>
        <path class="cls-2" d="M752.27,362.39c6.26-4.19,13.2-7.37,20.59-9.36-11.2-1.92-22.16,2.68-32.88,5.37-2.44,.72-4.86,1.34-7.29,1.89l19.27-22.49-60.5,22.46,22.15-25.84-63.93,23.73c10.94-13.45,23.16-26.02,36.02-36.97-16.69,6.74-36.66,19.4-57.38,37.63h-.39s12.5-23.45,12.5-23.45l-36.94,13.71c7.2-11.63,16.15-22.25,26.6-31.44-22.68,5.11-46.17,17.03-66.68,35.82,13.99-20.36,31.23-39.57,49.81-55.39-22.33,9.01-50.57,28.66-78.56,58.02h-.19c16.42-21.53,35.34-43.44,54.1-62.67-16.56,12.62-57.46,39.92-102.84,59.26,26.05-37.75,39.91-38.68,58.17-45.86-25.72,1.65-65.93,27.2-91.91,46.87l-1.19-.03c8.84-17.2,20.7-32.92,35.01-46.21-24.82,6.83-83.74,44.79-83.74,44.79,4.7-5.7,9.78-11.09,15.21-16.14-4.87,1.34-9.79,3-14.73,4.98,57.89-60.86,142.22-96.33,225.03-93.93,87.64,2.54,171.6,47.44,220.75,118.03l-96.1-2.78Z"/>
        <path class="cls-21" d="M811.41,310.25c4.08,5.24,7.32,11.17,9.53,17.56,1.01-10.02-3.72-19.39-6.75-28.68-.79-2.1-1.48-4.21-2.11-6.31l21.05,15.51-23.53-51.92,24.19,17.83-24.87-54.87c12.56,8.76,24.41,18.71,34.87,29.34-6.97-14.29-19.38-31.08-36.76-48.15v-.34s21.46,9.47,21.46,9.47l-14.37-31.71c10.72,5.58,20.65,12.77,29.41,21.39-5.89-19.69-17.86-39.64-35.72-56.49,18.85,10.99,36.87,24.93,51.99,40.28-9.33-19.12-28.41-42.74-56.07-65.49v-.17c20.02,13.06,40.54,28.3,58.67,43.59-12.17-13.78-38.79-48.08-58.64-86.86,34.95,20.48,36.62,32.66,44.07,48.3-3.03-22.61-28.06-56.4-47.02-78.03l-.04-1.05c15.74,6.66,30.36,16.08,42.97,27.83C836.21,49.81,799.07,.32,799.07,.32c5.32,3.77,10.4,7.9,15.19,12.35-1.48-4.22-3.24-8.45-5.3-12.67,57.32,47.05,93.81,119.16,96.73,192.45,3.09,77.57-31.48,154.73-90.89,202.87l-3.39-85.06Z"/>
        <path class="cls-19" d="M845.02,368.52c-9.38,5.88-18.76,11.75-28.14,17.63-118.9,242.66-222.62,689.25-222.62,1158.93h50.77c0-475.4,79.82-923.96,199.98-1176.56Z"/>
        <circle class="cls-20" cx="831.65" cy="383.29" r="32.05" transform="translate(9.49 786.52) rotate(-50.87)"/>
      </g>
    </g>
  </g>
</svg>