<?xml version="1.0" encoding="UTF-8"?>
<svg xmlns="http://www.w3.org/2000/svg" viewBox="0 0 532.48 89.18">
  <defs>
    <style>
      .cls-1 {
        fill: #f4f4f4;
      }

      .cls-2 {
        fill: #fff;
      }

      .cls-3 {
        fill: #838584;
      }

      .cls-4 {
        fill: #f6f6f6;
      }

      .cls-5 {
        fill: #575756;
      }

      .cls-6 {
        fill: #8c8c8c;
      }

      .cls-7 {
        isolation: isolate;
      }

      .cls-8 {
        fill: #f87a36;
      }

      .cls-9 {
        fill: #999596;
      }

      .cls-10 {
        fill: #b0b0b0;
      }

      .cls-11 {
        fill: #9d9d9c;
      }

      .cls-11, .cls-12 {
        mix-blend-mode: multiply;
      }

      .cls-13 {
        fill: #f42900;
      }

      .cls-12 {
        fill: #bfbfbd;
      }

      .cls-14 {
        fill: #3c3c3b;
      }

      .cls-15 {
        fill: #464646;
      }

      .cls-16 {
        fill: #706f6f;
      }

      .cls-17 {
        fill: #878787;
      }

      .cls-18 {
        fill: #2e2a21;
      }

      .cls-19 {
        fill: #ccccca;
      }

      .cls-20 {
        fill: #c2c2c2;
      }

      .cls-21 {
        fill: #c6c6c6;
      }

      .cls-22 {
        fill: #1d1d1b;
      }
    </style>
  </defs>
  <g class="cls-7">
    <g id="Layer_2" data-name="Layer 2">
      <g id="Layer_1-2" data-name="Layer 1">
        <path class="cls-11" d="M520.43,62.83l-.21-.19c-1-.9-1.74-1.76-2.58-2.59-.1-.1-.2-.2-.31-.3-3.08-2.91-7.98-5.47-30.76-8.17-27.37-3.25-142.82-1.23-142.82-1.23-6.93-2.01-25.53-7.45-29.8-9.13-.14-.05-.27-.11-.38-.15-3.3-1.43-30.63-33.06-35.82-39.08-.54-.62-1.32-.98-2.15-.98h-11.1l12.43,48.6c-3.78-1.05-6.72-1.86-7.38-2.03-.06-.02-.11-.03-.13-.03,0,0,0,0,0,0,0,0,0,0,0,0h-8.93s0,0,0,0h0s0,0,.02,0l2.44,1.82,6.51,4.84-.36,.02,1.13,3.59h-12.05l-31.33-18.26H1l21.06,18.48L1,76.51H226.86l31.26-17.7h12.44l1.1,3.5,.1,.31c.78,.28,1.56,.55,2.34,.83,.25,.09,.49,.17,.74,.25,2.58,.9,5.15,1.79,7.73,2.66,.37,.12,.73,.24,1.1,.37,2.73,.91,5.45,1.81,8.16,2.67,3.1,.99,6.2,1.95,9.27,2.86,9.36,2.78,18.56,5.19,27.45,7.05,10.93,2.28,21.37,3.73,31.02,3.99,3.02,.08,9.7,.18,18.64,.27,2.75,.03,5.73,.05,8.87,.08v.24l5.34,1.44v1.11l6.3,1.97v-4.67h0v5.43c8.25,.1,19.36-.14,24.22-1.29,.31-.07,.59-.15,.85-.23,.06-.02,.11-.04,.17-.06,.18-.06,.36-.12,.51-.19,.07-.03,.12-.07,.19-.1,.11-.06,.23-.11,.31-.18,.06-.04,.09-.08,.14-.12,.05-.05,.12-.09,.16-.14,.02-.02,.04-.05,.05-.07v-2.96c4.01,0,8.04,0,12.05,0,31.98-.03,62.74-.4,68.65-1.49,.26-.05,.52-.1,.78-.15,4.45-.85,8.35-1.84,11.68-2.89,6.99-2.21,11.44-4.71,13.18-6.79,0,0,0,0,0,0,.54-.65,.82-1.25,.84-1.8,.07-2.44-2.95-4.36-12.05-7.9Zm-292.57,11.97V41.29l29.16,16.99-29.16,16.51Z"/>
        <g>
          <g>
            <path class="cls-13" d="M225.86,75.51l31.26-17.7h26.1v-1h-26.02l-31.33-18.26v36.96Zm1-35.22l29.16,16.99-29.16,16.51V40.29Z"/>
            <polygon class="cls-1" points="0 75.51 225.86 75.51 225.86 38.55 0 38.55 21.06 57.03 0 75.51"/>
          </g>
          <path class="cls-4" d="M271.28,53.07l-3.17,.16,2.55,8.08,.1,.31c.78,.28,1.56,.55,2.34,.82,5.92,2.08,11.84,4.07,17.72,5.95,3.1,.99,6.2,1.95,9.27,2.86,9.36,2.78,18.56,5.19,27.45,7.05,10.93,2.28,21.37,3.73,31.02,3.99,3.02,.08,9.7,.18,18.64,.27,8.1,.08,18.04,.15,28.78,.2,9.73,.04,20.11,.07,30.37,.06,31.98-.03,62.74-.4,68.65-1.49,.26-.05,.52-.1,.78-.15,4.45-.85,8.35-1.84,11.68-2.89,6.99-2.21,11.44-4.71,13.18-6.79,0,0,0,0,0,0,.54-.65,.82-1.25,.84-1.8,.07-2.44-2.95-4.36-12.05-7.9l-.21-.19c-1-.9-1.74-1.76-2.58-2.59-.1-.1-.2-.2-.31-.3-3.08-2.91-7.98-5.47-30.76-8.17-27.37-3.25-142.82-1.23-142.82-1.23,0,0-25.79-7.39-30.17-9.28-3.3-1.43-30.63-33.06-35.82-39.08-.54-.62-1.32-.98-2.15-.98h-11.1l13.5,52.78-1.78,.09-3.96,.2Z"/>
          <path class="cls-8" d="M263.52,0l12.62,49.35h66.61c-7.16-2.08-26.78-7.82-30.17-9.28-3.3-1.43-30.63-33.06-35.82-39.08-.54-.62-1.32-.98-2.15-.98h-11.1Z"/>
          <path class="cls-8" d="M272.36,56.11c4.91,1.75,7.11,.53,18.46,12.29,31.6-1.24,173.79-3.52,190.76-2.77,19.05,.84,48.36,5.77,49.05,5.89-.9-.27-50.99-15.43-70.69-16.64-28.4-1.74-176.83-1.04-176.83-1.04l-10.75,2.26Z"/>
          <path class="cls-12" d="M327.54,78.3c12.11,2.28,23.68,3.73,34.38,3.99,3.35,.08,10.76,.18,20.66,.27,8.97,.08,19.99,.15,31.89,.2,7.07,.03,14.44,.05,21.89,.06,31.98-.03,62.74-.4,68.65-1.49,.26-.05,.52-.1,.78-.15,4.45-.85,8.35-1.84,11.68-2.89h-189.92Z"/>
          <path class="cls-12" d="M270.66,61.31l.1,.31c6.7,2.37,13.4,4.65,20.06,6.77l6.4-12.27-21.99-3.26-3.9-.58-.06,.77-.61,8.24Z"/>
          <path class="cls-9" d="M505.22,59.32v1.97c0,.26,.17,.5,.42,.58l5.33,1.51c.19,.05,.38,.05,.57,0l4.16-1.12,3.74-.44-.21-.19c-1-.9-1.74-1.76-2.58-2.59-.1-.1-.2-.2-.31-.3h-10.54c-.32,0-.57,.26-.57,.57Z"/>
          <path d="M508.66,59.2h-2.68c-.11,0-.19,.09-.19,.19v1.17c0,.22,.14,.42,.35,.5l4.44,1.75-1.39-3.27c-.08-.21-.29-.35-.52-.35Z"/>
          <path d="M512.98,59.36h-3.01c-.11,0-.18,.11-.13,.21l1.48,3.15c.05,.12,.18,.18,.31,.15l3.67-.79c.09-.02,.12-.12,.06-.19l-2.22-2.47s-.1-.07-.15-.07Z"/>
          <path d="M513.67,59.2l2.6,2.66,2.95-.22c-1-.9-1.74-1.76-2.58-2.59l-2.97,.15Z"/>
          <g>
            <path class="cls-22" d="M486.83,70.08v-14.52c0-.8,.65-1.46,1.46-1.46h4.7c.8,0,1.46,.65,1.46,1.46v14.52c0,.8-.65,1.46-1.46,1.46h-4.7c-.8,0-1.46-.65-1.46-1.46Zm1.46-15.73c-.67,0-1.21,.54-1.21,1.21v14.52c0,.67,.54,1.21,1.21,1.21h4.7c.67,0,1.21-.54,1.21-1.21v-14.52c0-.67-.54-1.21-1.21-1.21h-4.7Z"/>
            <path class="cls-17" d="M489.02,62.82h3.22c.23,0,.41-.19,.41-.41s-.19-.41-.41-.41h-3.22c-.23,0-.41,.19-.41,.41s.19,.41,.41,.41Z"/>
            <path class="cls-16" d="M489.48,59.9c0,.64,.52,1.16,1.16,1.16s1.16-.52,1.16-1.16-.52-1.16-1.16-1.16-1.16,.52-1.16,1.16Z"/>
            <path class="cls-11" d="M489.75,59.9c0,.49,.4,.89,.89,.89s.89-.4,.89-.89-.4-.89-.89-.89-.89,.4-.89,.89Z"/>
            <g>
              <g>
                <rect class="cls-11" x="479.84" y="60.19" width="2.58" height="3.6" rx=".92" ry=".92" transform="translate(962.27 123.98) rotate(180)"/>
                <rect class="cls-5" x="479.99" y="60.39" width="2.29" height="3.2" rx=".82" ry=".82" transform="translate(962.27 123.98) rotate(180)"/>
              </g>
              <g>
                <rect class="cls-11" x="475.77" y="60.19" width="2.58" height="3.6" rx=".92" ry=".92" transform="translate(954.12 123.98) rotate(180)"/>
                <rect class="cls-5" x="475.92" y="60.39" width="2.29" height="3.2" rx=".82" ry=".82" transform="translate(954.12 123.98) rotate(180)"/>
              </g>
              <g>
                <rect class="cls-11" x="471.7" y="60.19" width="2.58" height="3.6" rx=".92" ry=".92" transform="translate(945.98 123.98) rotate(180)"/>
                <rect class="cls-5" x="471.84" y="60.39" width="2.29" height="3.2" rx=".82" ry=".82" transform="translate(945.98 123.98) rotate(180)"/>
              </g>
              <g>
                <rect class="cls-11" x="467.63" y="60.19" width="2.58" height="3.6" rx=".92" ry=".92" transform="translate(937.84 123.98) rotate(180)"/>
                <rect class="cls-5" x="467.77" y="60.39" width="2.29" height="3.2" rx=".82" ry=".82" transform="translate(937.84 123.98) rotate(180)"/>
              </g>
              <g>
                <rect class="cls-11" x="463.56" y="60.19" width="2.58" height="3.6" rx=".92" ry=".92" transform="translate(929.7 123.98) rotate(180)"/>
                <rect class="cls-5" x="463.7" y="60.39" width="2.29" height="3.2" rx=".82" ry=".82" transform="translate(929.7 123.98) rotate(180)"/>
              </g>
              <g>
                <rect class="cls-11" x="459.49" y="60.19" width="2.58" height="3.6" rx=".92" ry=".92" transform="translate(921.55 123.98) rotate(180)"/>
                <rect class="cls-5" x="459.63" y="60.39" width="2.29" height="3.2" rx=".82" ry=".82" transform="translate(921.55 123.98) rotate(180)"/>
              </g>
              <g>
                <rect class="cls-11" x="455.42" y="60.19" width="2.58" height="3.6" rx=".92" ry=".92" transform="translate(913.41 123.98) rotate(180)"/>
                <rect class="cls-5" x="455.56" y="60.39" width="2.29" height="3.2" rx=".82" ry=".82" transform="translate(913.41 123.98) rotate(180)"/>
              </g>
              <g>
                <rect class="cls-11" x="451.35" y="60.19" width="2.58" height="3.6" rx=".92" ry=".92" transform="translate(905.27 123.98) rotate(180)"/>
                <rect class="cls-5" x="451.49" y="60.39" width="2.29" height="3.2" rx=".82" ry=".82" transform="translate(905.27 123.98) rotate(180)"/>
              </g>
              <g>
                <rect class="cls-11" x="447.27" y="60.19" width="2.58" height="3.6" rx=".92" ry=".92" transform="translate(897.13 123.98) rotate(180)"/>
                <rect class="cls-5" x="447.42" y="60.39" width="2.29" height="3.2" rx=".82" ry=".82" transform="translate(897.13 123.98) rotate(180)"/>
              </g>
              <g>
                <rect class="cls-11" x="443.2" y="60.19" width="2.58" height="3.6" rx=".92" ry=".92" transform="translate(888.98 123.98) rotate(180)"/>
                <rect class="cls-5" x="443.35" y="60.39" width="2.29" height="3.2" rx=".82" ry=".82" transform="translate(888.98 123.98) rotate(180)"/>
              </g>
              <g>
                <rect class="cls-11" x="439.13" y="60.19" width="2.58" height="3.6" rx=".92" ry=".92" transform="translate(880.84 123.98) rotate(180)"/>
                <rect class="cls-5" x="439.27" y="60.39" width="2.29" height="3.2" rx=".82" ry=".82" transform="translate(880.84 123.98) rotate(180)"/>
              </g>
              <g>
                <rect class="cls-11" x="429.8" y="60.19" width="2.58" height="3.6" rx=".92" ry=".92" transform="translate(862.18 123.98) rotate(180)"/>
                <rect class="cls-5" x="429.95" y="60.39" width="2.29" height="3.2" rx=".82" ry=".82" transform="translate(862.18 123.98) rotate(180)"/>
              </g>
              <g>
                <rect class="cls-11" x="425.49" y="60.19" width="2.58" height="3.6" rx=".92" ry=".92" transform="translate(853.55 123.98) rotate(180)"/>
                <rect class="cls-5" x="425.63" y="60.39" width="2.29" height="3.2" rx=".82" ry=".82" transform="translate(853.55 123.98) rotate(180)"/>
              </g>
              <g>
                <rect class="cls-11" x="421.17" y="60.19" width="2.58" height="3.6" rx=".92" ry=".92" transform="translate(844.92 123.98) rotate(180)"/>
                <rect class="cls-5" x="421.31" y="60.39" width="2.29" height="3.2" rx=".82" ry=".82" transform="translate(844.92 123.98) rotate(180)"/>
              </g>
              <g>
                <rect class="cls-11" x="416.85" y="60.19" width="2.58" height="3.6" rx=".92" ry=".92" transform="translate(836.28 123.98) rotate(180)"/>
                <rect class="cls-5" x="417" y="60.39" width="2.29" height="3.2" rx=".82" ry=".82" transform="translate(836.28 123.98) rotate(180)"/>
              </g>
              <g>
                <rect class="cls-11" x="412.54" y="60.19" width="2.58" height="3.6" rx=".92" ry=".92" transform="translate(827.65 123.98) rotate(180)"/>
                <rect class="cls-5" x="412.68" y="60.39" width="2.29" height="3.2" rx=".82" ry=".82" transform="translate(827.65 123.98) rotate(180)"/>
              </g>
              <g>
                <rect class="cls-11" x="408.22" y="60.19" width="2.58" height="3.6" rx=".92" ry=".92" transform="translate(819.02 123.98) rotate(180)"/>
                <rect class="cls-5" x="408.36" y="60.39" width="2.29" height="3.2" rx=".82" ry=".82" transform="translate(819.02 123.98) rotate(180)"/>
              </g>
              <path class="cls-5" d="M407.05,65.75v-5.77c0-.9,.73-1.63,1.63-1.63h1.65c.9,0,1.63,.73,1.63,1.63v5.77c0,.9-.73,1.63-1.63,1.63h-1.65c-.9,0-1.63-.73-1.63-1.63Zm1.63-7.15c-.76,0-1.38,.62-1.38,1.38v5.77c0,.76,.62,1.38,1.38,1.38h1.65c.76,0,1.38-.62,1.38-1.38v-5.77c0-.76-.62-1.38-1.38-1.38h-1.65Z"/>
              <g>
                <rect class="cls-11" x="403.9" y="60.19" width="2.58" height="3.6" rx=".92" ry=".92" transform="translate(810.38 123.98) rotate(180)"/>
                <rect class="cls-5" x="404.05" y="60.39" width="2.29" height="3.2" rx=".82" ry=".82" transform="translate(810.38 123.98) rotate(180)"/>
              </g>
              <g>
                <rect class="cls-11" x="399.59" y="60.19" width="2.58" height="3.6" rx=".92" ry=".92" transform="translate(801.75 123.98) rotate(180)"/>
                <rect class="cls-5" x="399.73" y="60.39" width="2.29" height="3.2" rx=".82" ry=".82" transform="translate(801.75 123.98) rotate(180)"/>
              </g>
              <g>
                <rect class="cls-11" x="395.27" y="60.19" width="2.58" height="3.6" rx=".92" ry=".92" transform="translate(793.12 123.98) rotate(180)"/>
                <rect class="cls-5" x="395.41" y="60.39" width="2.29" height="3.2" rx=".82" ry=".82" transform="translate(793.12 123.98) rotate(180)"/>
              </g>
              <g>
                <rect class="cls-11" x="390.95" y="60.19" width="2.58" height="3.6" rx=".92" ry=".92" transform="translate(784.48 123.98) rotate(180)"/>
                <rect class="cls-5" x="391.1" y="60.39" width="2.29" height="3.2" rx=".82" ry=".82" transform="translate(784.48 123.98) rotate(180)"/>
              </g>
              <g>
                <rect class="cls-11" x="386.64" y="60.19" width="2.58" height="3.6" rx=".92" ry=".92" transform="translate(775.85 123.98) rotate(180)"/>
                <rect class="cls-5" x="386.78" y="60.39" width="2.29" height="3.2" rx=".82" ry=".82" transform="translate(775.85 123.98) rotate(180)"/>
              </g>
              <g>
                <rect class="cls-11" x="382.32" y="60.19" width="2.58" height="3.6" rx=".92" ry=".92" transform="translate(767.22 123.98) rotate(180)"/>
                <rect class="cls-5" x="382.46" y="60.39" width="2.29" height="3.2" rx=".82" ry=".82" transform="translate(767.22 123.98) rotate(180)"/>
              </g>
              <g>
                <rect class="cls-11" x="378" y="60.19" width="2.58" height="3.6" rx=".92" ry=".92" transform="translate(758.58 123.98) rotate(180)"/>
                <rect class="cls-5" x="378.15" y="60.39" width="2.29" height="3.2" rx=".82" ry=".82" transform="translate(758.58 123.98) rotate(180)"/>
              </g>
              <g>
                <rect class="cls-11" x="373.69" y="60.19" width="2.58" height="3.6" rx=".92" ry=".92" transform="translate(749.95 123.98) rotate(180)"/>
                <rect class="cls-5" x="373.83" y="60.39" width="2.29" height="3.2" rx=".82" ry=".82" transform="translate(749.95 123.98) rotate(180)"/>
              </g>
              <g>
                <rect class="cls-11" x="369.37" y="60.19" width="2.58" height="3.6" rx=".92" ry=".92" transform="translate(741.32 123.98) rotate(180)"/>
                <rect class="cls-5" x="369.51" y="60.39" width="2.29" height="3.2" rx=".82" ry=".82" transform="translate(741.32 123.98) rotate(180)"/>
              </g>
              <g>
                <rect class="cls-11" x="365.05" y="60.19" width="2.58" height="3.6" rx=".92" ry=".92" transform="translate(732.68 123.98) rotate(180)"/>
                <rect class="cls-5" x="365.2" y="60.39" width="2.29" height="3.2" rx=".82" ry=".82" transform="translate(732.68 123.98) rotate(180)"/>
              </g>
              <g>
                <rect class="cls-11" x="360.74" y="60.19" width="2.58" height="3.6" rx=".92" ry=".92" transform="translate(724.05 123.98) rotate(180)"/>
                <rect class="cls-5" x="360.88" y="60.39" width="2.29" height="3.2" rx=".82" ry=".82" transform="translate(724.05 123.98) rotate(180)"/>
              </g>
              <g>
                <rect class="cls-11" x="356.42" y="60.19" width="2.58" height="3.6" rx=".92" ry=".92" transform="translate(715.42 123.98) rotate(180)"/>
                <rect class="cls-5" x="356.56" y="60.39" width="2.29" height="3.2" rx=".82" ry=".82" transform="translate(715.42 123.98) rotate(180)"/>
              </g>
              <g>
                <rect class="cls-11" x="352.1" y="60.19" width="2.58" height="3.6" rx=".92" ry=".92" transform="translate(706.78 123.98) rotate(180)"/>
                <rect class="cls-5" x="352.25" y="60.39" width="2.29" height="3.2" rx=".82" ry=".82" transform="translate(706.78 123.98) rotate(180)"/>
              </g>
              <g>
                <rect class="cls-11" x="347.79" y="60.19" width="2.58" height="3.6" rx=".92" ry=".92" transform="translate(698.15 123.98) rotate(180)"/>
                <rect class="cls-5" x="347.93" y="60.39" width="2.29" height="3.2" rx=".82" ry=".82" transform="translate(698.15 123.98) rotate(180)"/>
              </g>
              <g>
                <rect class="cls-11" x="343.47" y="60.19" width="2.58" height="3.6" rx=".92" ry=".92" transform="translate(689.52 123.98) rotate(180)"/>
                <rect class="cls-5" x="343.61" y="60.39" width="2.29" height="3.2" rx=".82" ry=".82" transform="translate(689.52 123.98) rotate(180)"/>
              </g>
              <g>
                <rect class="cls-11" x="339.15" y="60.19" width="2.58" height="3.6" rx=".92" ry=".92" transform="translate(680.88 123.98) rotate(180)"/>
                <rect class="cls-5" x="339.3" y="60.39" width="2.29" height="3.2" rx=".82" ry=".82" transform="translate(680.88 123.98) rotate(180)"/>
              </g>
              <g>
                <rect class="cls-11" x="334.84" y="60.19" width="2.58" height="3.6" rx=".92" ry=".92" transform="translate(672.25 123.98) rotate(180)"/>
                <rect class="cls-5" x="334.98" y="60.39" width="2.29" height="3.2" rx=".82" ry=".82" transform="translate(672.25 123.98) rotate(180)"/>
              </g>
              <path class="cls-5" d="M315.56,68.86v-13.75c0-.88,.72-1.6,1.6-1.6h3.38c.88,0,1.6,.72,1.6,1.6v13.75c0,.88-.72,1.6-1.6,1.6h-3.38c-.88,0-1.6-.72-1.6-1.6Zm1.6-15.1c-.74,0-1.35,.61-1.35,1.35v13.75c0,.74,.61,1.35,1.35,1.35h3.38c.74,0,1.35-.61,1.35-1.35v-13.75c0-.74-.61-1.35-1.35-1.35h-3.38Z"/>
            </g>
          </g>
          <g>
            <path class="cls-5" d="M259.5,46.53h.02s2.44,1.83,2.44,1.83l10.4,7.74c1.81,.35,3.72,.66,5.64,.93,7.12,.99,14.39,1.4,17.31,.88,.09-.02,.18-.03,.26-.05,2.84-.56,3.26-1.58,2.53-2.51-.72-.92-27.38-8.19-29.54-8.78-.06-.02-.11-.03-.13-.03,0,0,0,0,0,0,0,0,0,0,0,0h-8.93Z"/>
            <path class="cls-4" d="M259.5,46.53s0,0,.02,0c1.24,.76,5.89,1.07,8.11,1.11h.01c1.12,.02,1.43-.87,.93-1.08-.04-.02-.08-.03-.13-.03,0,0,0,0,0,0,0,0,0,0,0,0h-8.9s-.02,0-.03,0h0Z"/>
            <path class="cls-21" d="M267.65,47.65c1.12,.02,1.43-.87,.93-1.08,2.16,.59,28.81,7.86,29.54,8.78,.73,.93,.31,1.94-2.53,2.51l-.76-.2-3.07-1.72-24.12-8.29h.02Z"/>
            <path class="cls-14" d="M261.96,48.36l10.4,7.74c1.81,.35,3.72,.66,5.64,.93l-13.85-8.35-2.19-.32Z"/>
          </g>
          <g>
            <path class="cls-12" d="M377.21,82.57c8.1,.08,18.04,.15,28.78,.2l5.85-8.47-31.4-3.19-3.23,11.46Z"/>
            <path class="cls-15" d="M359.47,68.4l32.57,9.41,19.13-1.19,.67-.04c.2-1.01-.26-1.53-1.57-2.34-.77-.48-37.05-6.99-38.12-6.99h-.04c-4.98,0-12.64,1.15-12.64,1.15Z"/>
            <path class="cls-21" d="M372.11,67.25l.47,1,37.7,8.37h.88l.67-.04c.2-1.01-.26-1.53-1.57-2.34-.77-.48-37.05-6.99-38.12-6.99h-.04Z"/>
            <path class="cls-6" d="M404.2,77.05l-19.15-.43c-.24,0-.49,.04-.71,.14l-5.03,2.21c-.26,.11-.2,.5,.09,.53,20.37,1.75,24.55-1.79,24.8-2.45Z"/>
            <path class="cls-10" d="M402.74,75.73l-18.16-.41c-.23,0-.45,.03-.66,.11l-4.9,1.78c-.16,.06-.12,.29,.04,.3,18.73,1.36,23.18-1.34,23.67-1.79Z"/>
            <path class="cls-20" d="M393.49,74.29l-16.09-.4c-.23,0-.46,.04-.67,.12l-4.17,1.68c-.21,.08-.16,.4,.06,.41,3.12,.25,19.71,.5,20.86-1.82Z"/>
            <g>
              <path class="cls-19" d="M397.71,75.15v13.01c8.25,.1,19.36-.14,24.22-1.29,1.2-.28,2.01-.62,2.32-1.02,.02-.02,.04-.05,.05-.07v-12.27c-.59-.4-1.4-.73-2.37-.99-5.42-1.46-16.07-.77-24.22,2.63Z"/>
              <path class="cls-8" d="M397.71,75.15v13.01c8.25,.1,19.36-.14,24.22-1.29,1.2-.28,2.01-.62,2.32-1.02l-26.55-10.71Z"/>
              <path class="cls-3" d="M421.94,72.52v14.36c1.27-.3,2.11-.66,2.37-1.09v-12.27c-.59-.4-1.4-.73-2.37-.99Z"/>
              <polygon class="cls-18" points="391.41 85.44 397.71 87.4 397.71 76.43 391.41 78.4 391.41 85.44"/>
              <polygon class="cls-18" points="386.07 82.89 391.41 84.33 391.41 79.51 386.07 80.95 386.07 82.89"/>
            </g>
          </g>
          <polygon class="cls-2" points="265.51 0 278.32 49.35 284.94 49.35 272.13 0 265.51 0"/>
        </g>
      </g>
    </g>
  </g>
</svg>